<svg width="25" height="24" viewBox="0 0 25 24" fill="none" xmlns="http://www.w3.org/2000/svg">
<g clip-path="url(#clip0_461_1832)">
<path d="M7.35507 20.1585C6.78714 20.5953 6.08516 20.8656 5.31489 20.8656C3.45865 20.8656 1.94817 19.3551 1.94817 17.4989C1.94817 15.6422 3.45865 14.1317 5.31489 14.1317C6.71586 14.1317 7.91739 14.9931 8.42399 16.213L9.47827 15.1195C8.64803 13.6704 7.1046 12.6826 5.31489 12.6826C2.65475 12.6826 0.499023 14.8388 0.499023 17.4989C0.499023 20.1585 2.65475 22.3147 5.31489 22.3147C6.56644 22.3147 7.69567 21.8256 8.55229 21.0425C8.22353 20.9322 7.91169 20.7572 7.64522 20.5005C7.53528 20.3943 7.44041 20.2783 7.35507 20.1585Z" fill="#94A3B8"/>
<path d="M14.6679 12.7198L12.1178 11.2387C13.255 10.5269 12.8333 10.7905 13.9706 10.0786L13.9348 10.4409C13.8735 11.0575 14.3279 11.6218 14.8999 11.7377C14.9136 11.7405 19.3766 12.4991 19.5394 12.4991C20.1191 12.4991 20.631 12.0802 20.729 11.4891C20.8385 10.8311 20.3937 10.2093 19.7356 10.1004L16.45 9.55454L16.6062 7.98661C16.7637 6.98467 16.8321 6.6705 16.458 6.07276L15.9877 5.32085C15.3801 4.35047 14.0989 4.05375 13.1262 4.66275L7.9788 7.88556C6.71455 8.67714 6.09801 10.3462 7.13015 11.5739C7.53338 12.0537 11.4539 14.4629 11.4539 14.4629L8.27871 17.7565C7.72301 18.3324 7.73954 19.25 8.31597 19.8052C8.59713 20.0763 8.95943 20.2113 9.32168 20.2113C9.70148 20.2113 10.0807 20.0632 10.3647 19.7678L14.9829 14.9785C15.6344 14.3043 15.4816 13.1925 14.6679 12.7198Z" fill="#94A3B8"/>
<path d="M20.0775 6.14088C21.2064 5.43378 21.5484 3.94592 20.8417 2.81756C20.1351 1.68823 18.6472 1.34623 17.5185 2.0529C16.39 2.75957 16.048 4.24689 16.7543 5.37525C17.4608 6.50463 18.9487 6.84712 20.0775 6.14088Z" fill="#94A3B8"/>
<path d="M19.6831 12.6826C16.9952 12.6826 14.8672 14.9002 14.8672 17.4989C14.8672 20.1585 17.023 22.3147 19.6831 22.3147C22.3426 22.3147 24.499 20.1585 24.499 17.4989C24.499 14.8388 22.3426 12.6826 19.6831 12.6826ZM19.6831 20.8656C17.8268 20.8656 16.3163 19.3551 16.3163 17.4989C16.3163 15.6422 17.8269 14.1317 19.6831 14.1317C21.5394 14.1317 23.0498 15.6422 23.0498 17.4989C23.0499 19.3551 21.5394 20.8656 19.6831 20.8656Z" fill="#94A3B8"/>
</g>
<defs>
<clipPath id="clip0_461_1832">
<rect width="24" height="24" fill="white" transform="translate(0.5)"/>
</clipPath>
</defs>
</svg>
