<svg width="25" height="24" viewBox="0 0 25 24" fill="none" xmlns="http://www.w3.org/2000/svg">
<g clip-path="url(#clip0_461_1835)">
<path d="M11.8407 19.955L4.88012 12.9944C4.33098 12.4452 3.44059 12.4452 2.8914 12.9944C2.34217 13.5436 2.34217 14.4339 2.8914 14.9831L2.3942 15.4803C1.57042 16.3041 1.57042 17.6397 2.3942 18.4634L6.37168 22.4409C7.19541 23.2647 8.53102 23.2647 9.3548 22.4409L9.852 21.9437C10.4012 22.4929 11.2915 22.4929 11.8407 21.9437C12.3899 21.3945 12.3899 20.5042 11.8407 19.955Z" fill="#94A3B8"/>
<path d="M2.39503 20.4521L1.24786 21.5994C0.698629 22.1486 0.698629 23.0389 1.24786 23.5881C1.797 24.1373 2.68739 24.1373 3.23653 23.5881L4.38375 22.4409L2.39503 20.4521Z" fill="#94A3B8"/>
<path d="M23.2754 5.53672L19.2979 1.55924C18.4741 0.735461 17.1385 0.735461 16.3148 1.55924L15.8176 2.05644C15.2683 1.50721 14.3781 1.50721 13.8288 2.05644C13.2797 2.60558 13.2797 3.49597 13.8288 4.04516L20.7894 11.0058C21.3386 11.5549 22.229 11.5549 22.7782 11.0058C23.3274 10.4565 23.3274 9.56627 22.7782 9.01704L23.2754 8.51984C24.0991 7.69606 24.0991 6.3604 23.2754 5.53672Z" fill="#94A3B8"/>
<path d="M24.4221 0.411925C23.8729 -0.137308 22.9825 -0.137308 22.4333 0.411925L21.2861 1.55914L23.2748 3.54786L24.4221 2.40064C24.9713 1.8515 24.9713 0.961111 24.4221 0.411925Z" fill="#94A3B8"/>
<path d="M15.321 7.52539L14.5325 8.31392C13.8139 9.03251 13.4177 9.98806 13.4177 11.0047C13.4177 11.2708 13.3143 11.5209 13.1264 11.7088L12.5437 12.2914C12.3559 12.4793 12.1058 12.5827 11.8407 12.5827C10.824 12.5827 9.86747 12.9789 9.14888 13.6975L8.36035 14.486L10.3491 16.4748L11.1376 15.6863C11.3255 15.4984 11.5755 15.3949 11.8407 15.3949C12.8573 15.3949 13.8138 14.9988 14.5324 14.2802L15.1151 13.6975C15.8337 12.9789 16.2299 12.0234 16.2299 11.0067C16.2299 10.7406 16.3333 10.4906 16.5212 10.3027L17.3098 9.51415L15.321 7.52539Z" fill="#94A3B8"/>
</g>
<defs>
<clipPath id="clip0_461_1835">
<rect width="24" height="24" fill="white" transform="translate(0.833984)"/>
</clipPath>
</defs>
</svg>
