<svg width="32" height="32" viewBox="0 0 32 32" fill="none" xmlns="http://www.w3.org/2000/svg">
<rect width="32" height="32" rx="16" fill="#8641F6"/>
<path d="M14.0008 16.5C14.4008 14.4 14.9508 13.85 17.0508 13.45C17.3008 13.4 17.4508 13.2 17.4508 12.95C17.4508 12.7 17.3008 12.5 17.0508 12.45C14.9508 12.05 14.4008 11.5 14.0008 9.4C13.9508 9.15 13.7508 9 13.5008 9C13.2508 9 13.0508 9.15 13.0008 9.4C12.6008 11.5 12.0508 12.05 9.95078 12.45C9.75078 12.5 9.55078 12.7 9.55078 12.95C9.55078 13.2 9.70078 13.4 9.95078 13.45C12.0508 13.85 12.6008 14.4 13.0008 16.5C13.0508 16.75 13.2508 16.9 13.5008 16.9C13.7508 16.9 13.9508 16.7 14.0008 16.5Z" fill="white"/>
<path d="M19.0006 19.9996C17.6006 19.6996 17.3006 19.3996 17.0006 17.9996C16.9506 17.7496 16.7506 17.5996 16.5006 17.5996C16.2506 17.5996 16.0506 17.7496 16.0006 17.9996C15.7006 19.3996 15.4006 19.6996 14.0006 19.9996C13.7506 20.0496 13.6006 20.2496 13.6006 20.4996C13.6006 20.7496 13.7506 20.9496 14.0006 20.9996C15.4006 21.2996 15.7006 21.5996 16.0006 22.9996C16.0506 23.2496 16.2506 23.3996 16.5006 23.3996C16.7506 23.3996 16.9506 23.2496 17.0006 22.9996C17.3006 21.5996 17.6006 21.2996 19.0006 20.9996C19.2506 20.9496 19.4006 20.7496 19.4006 20.4996C19.4006 20.2496 19.2006 20.0496 19.0006 19.9996Z" fill="white"/>
<path d="M22.6006 14.9998C21.5006 14.7998 21.2506 14.5498 21.0506 13.4498C21.0006 13.1998 20.8006 13.0498 20.5506 13.0498C20.3006 13.0498 20.1006 13.1998 20.0506 13.4498C19.8506 14.5498 19.6006 14.7998 18.5006 14.9998C18.2506 15.0498 18.1006 15.2498 18.1006 15.4998C18.1006 15.7498 18.2506 15.9498 18.5006 15.9998C19.6006 16.1998 19.8506 16.4498 20.0506 17.5498C20.1006 17.7998 20.3006 17.9498 20.5506 17.9498C20.8006 17.9498 21.0006 17.7998 21.0506 17.5498C21.2506 16.4498 21.5006 16.1998 22.6006 15.9998C22.8506 15.9498 23.0006 15.7498 23.0006 15.4998C23.0006 15.2498 22.8506 15.0498 22.6006 14.9998Z" fill="white"/>
<path d="M10.851 19.1501C10.701 19.0001 10.501 18.9501 10.301 19.0501C10.251 19.0501 10.201 19.1001 10.151 19.1501C10.101 19.2001 10.051 19.2501 10.051 19.3001C10.001 19.3501 10.001 19.4501 10.001 19.5001C10.001 19.5501 10.001 19.6501 10.051 19.7001C10.101 19.7501 10.101 19.8001 10.151 19.8501C10.201 19.9001 10.251 19.9501 10.301 19.9501C10.351 20.0001 10.451 20.0001 10.501 20.0001C10.551 20.0001 10.651 20.0001 10.701 19.9501C10.751 19.9001 10.801 19.9001 10.851 19.8501C10.901 19.8001 10.951 19.7501 10.951 19.7001C11.001 19.6501 11.001 19.5501 11.001 19.5001C11.001 19.4501 11.001 19.3501 10.951 19.3001C10.951 19.2501 10.901 19.2001 10.851 19.1501Z" fill="white"/>
<path d="M22.001 11.5002C22.151 11.5002 22.251 11.4502 22.351 11.3502C22.451 11.2502 22.501 11.1502 22.501 11.0002C22.501 10.8502 22.451 10.7502 22.351 10.6502C22.301 10.6002 22.251 10.5502 22.201 10.5502C22.101 10.5002 21.951 10.5002 21.801 10.5502C21.751 10.5502 21.701 10.6002 21.651 10.6502C21.551 10.7502 21.501 10.8502 21.501 11.0002C21.501 11.1502 21.551 11.2502 21.651 11.3502C21.751 11.4502 21.851 11.5002 22.001 11.5002Z" fill="white"/>
</svg>
