<svg width="24" height="24" viewBox="0 0 24 24" fill="none" xmlns="http://www.w3.org/2000/svg">
<path d="M4.39746 11.1775C4.66329 13.004 5.57784 14.6738 6.97381 15.8813C8.36977 17.0888 10.1538 17.7533 11.9996 17.7533M11.9996 17.7533C13.8453 17.7533 15.6294 17.0888 17.0253 15.8813C18.4213 14.6738 19.3358 13.004 19.6017 11.1775M11.9996 17.7533V21.6004M12.0007 2.40039C11.1277 2.40039 10.2905 2.74717 9.67327 3.36443C9.05601 3.98169 8.70923 4.81888 8.70923 5.69182V10.0804C8.70923 10.9533 9.05601 11.7905 9.67327 12.4078C10.2905 13.025 11.1277 13.3718 12.0007 13.3718C12.8736 13.3718 13.7108 13.025 14.3281 12.4078C14.9453 11.7905 15.2921 10.9533 15.2921 10.0804V5.69182C15.2921 4.81888 14.9453 3.98169 14.3281 3.36443C13.7108 2.74717 12.8736 2.40039 12.0007 2.40039Z" stroke="#94A3B8" stroke-width="1.5" stroke-linecap="round" stroke-linejoin="round"/>
</svg>
