<svg width="25" height="24" viewBox="0 0 25 24" fill="none" xmlns="http://www.w3.org/2000/svg">
<g clip-path="url(#clip0_461_1925)">
<path d="M23.7592 5.22198L23.7005 5.16321C23.1487 4.61137 22.2494 4.61016 21.6942 5.16485L19.5344 7.34738C19.4206 7.46153 19.2386 7.46612 19.1199 7.35689L16.0918 4.56128C15.7977 4.28948 15.4151 4.14014 15.0142 4.14014H10.5097C10.4034 4.14014 10.3016 4.18067 10.2247 4.25349L6.40689 7.8785C5.8476 8.43821 5.80913 9.34044 6.3217 9.88979C6.59556 10.1835 6.96539 10.3452 7.36291 10.3452H7.36994C7.76418 10.3432 8.14311 10.1756 8.40497 9.88937L11.1013 7.03584H12.0664L5.77398 14.0684H1.89293C0.972896 14.0684 0.216319 14.7563 0.170395 15.6345C0.14598 16.0933 0.30648 16.5293 0.622139 16.8619C0.933204 17.1899 1.37047 17.3777 1.82263 17.3777H7.61404C7.7282 17.3777 7.83743 17.3306 7.91602 17.2466L10.8833 14.0791L13.3786 16.6885L12.6253 21.5028C12.4354 22.3004 12.818 23.1128 13.5349 23.4334C13.7558 23.5327 13.9904 23.5824 14.2237 23.5824C14.4748 23.5824 14.7246 23.5249 14.9546 23.4111C15.3989 23.191 15.7183 22.7885 15.8345 22.2879L17.1215 15.385C17.1463 15.251 17.1037 15.1128 17.0069 15.0164L13.5722 11.5863L16.3008 8.86184L18.2028 10.7635C18.734 11.2946 19.6598 11.2946 20.1906 10.7635L23.7593 7.19512C24.0228 6.93162 24.1681 6.58082 24.1681 6.2085C24.168 5.83586 24.0227 5.48548 23.7592 5.22198Z" fill="#94A3B8"/>
<path d="M19.1969 5.3816C20.5658 5.3816 21.679 4.26841 21.679 2.89954C21.679 1.53067 20.5658 0.41748 19.1969 0.41748C17.8281 0.41748 16.7148 1.53067 16.7148 2.89954C16.7149 4.26841 17.8281 5.3816 19.1969 5.3816Z" fill="#94A3B8"/>
</g>
<defs>
<clipPath id="clip0_461_1925">
<rect width="24" height="24" fill="white" transform="translate(0.166992)"/>
</clipPath>
</defs>
</svg>
