<svg width="25" height="24" viewBox="0 0 25 24" fill="none" xmlns="http://www.w3.org/2000/svg">
<g clip-path="url(#clip0_461_1838)">
<path d="M22.6752 6.70172C23.8214 6.13926 24.2952 4.7548 23.7328 3.6091C23.1717 2.46244 21.7868 1.98906 20.6406 2.55103C19.4949 3.11257 19.0214 4.49713 19.583 5.64283C20.1446 6.78901 21.529 7.26283 22.6752 6.70172Z" fill="#94A3B8"/>
<path d="M16.4034 9.68096C16.2189 10.5799 16.2998 11.3847 17.1954 11.6311C17.1954 11.6311 21.3154 12.7627 21.3172 12.7632L21.3195 12.7637C21.9887 12.9469 22.6737 12.553 22.8558 11.8893C23.0381 11.2246 22.6483 10.5373 21.9837 10.3538C21.9828 10.3533 21.9823 10.3533 21.9814 10.3528L19.8803 9.77584L19.0497 9.22155C19.3011 7.99852 19.2116 8.4326 19.4354 7.3451C19.5534 6.77229 19.1143 6.03985 18.8571 5.51446C18.3728 4.52745 17.181 4.11956 16.1945 4.60338L14.8146 5.27985L17.0155 6.74972C16.9649 6.92426 16.8456 7.52828 16.8058 7.72277L7.08557 1.23323C6.66149 0.948301 6.08589 1.06319 5.80154 1.48906C5.51754 1.91405 5.63199 2.48922 6.05737 2.77313L16.4034 9.68096Z" fill="#94A3B8"/>
<path d="M24.0345 20.5371C23.7727 20.0986 23.2052 19.9562 22.7643 20.2184L21.4894 20.9812L13.0551 18.0785L17.0321 14.728C17.7881 14.0919 17.7492 12.9095 16.9476 12.3249L14.7222 10.7031L15.5211 10.3116L15.6134 10.2663L10.9685 7.16504L10.9676 7.16547C10.1921 7.54571 9.69883 8.26651 9.56949 9.05855C9.40903 10.0361 9.81773 10.8866 10.7419 11.5834L13.5728 13.6465L9.71831 16.93L1.39383 14.0647C0.909145 13.897 0.382842 14.1546 0.216865 14.6385C0.0500173 15.1223 0.307297 15.6491 0.790632 15.8159L21.2935 22.8725C21.3916 22.9064 21.4939 22.9231 21.5951 22.9231C21.7606 22.9231 21.9252 22.8788 22.0708 22.7915L23.7157 21.8072C24.1543 21.5449 24.2971 20.9761 24.0345 20.5371Z" fill="#94A3B8"/>
</g>
<defs>
<clipPath id="clip0_461_1838">
<rect width="24" height="24" fill="white" transform="translate(0.166992)"/>
</clipPath>
</defs>
</svg>
