<svg width="25" height="24" viewBox="0 0 25 24" fill="none" xmlns="http://www.w3.org/2000/svg">
<g clip-path="url(#clip0_461_1841)">
<path d="M19.0314 9.59909C19.8176 8.84818 19.8466 7.60138 19.0953 6.81524C18.3444 6.02822 17.098 5.99959 16.3118 6.75015C15.5248 7.50106 15.4962 8.74743 16.2467 9.53367C16.998 10.3206 18.2444 10.3497 19.0314 9.59909Z" fill="#94A3B8"/>
<path d="M8.47336 10.8875L11.2973 9.49378L12.716 10.0484L8.05828 14.4952L8.08373 14.5215C9.48216 13.649 11.3 13.7702 12.5455 14.8828C13.1025 14.3851 13.8021 14.1013 14.5276 14.0085L15.9464 12.6544L16.7318 13.6977C16.8894 13.907 17.1351 14.0277 17.3939 14.0277C17.4672 14.0277 21.3073 13.5856 21.3869 13.5766C21.8415 13.5248 22.1672 13.114 22.1159 12.6594C22.0641 12.2043 21.655 11.8779 21.1987 11.9312L17.7705 12.3227L16.3404 10.4222C16.1972 10.2318 16.2255 10.2619 16.0808 10.095L15.6243 9.61681C15.5279 9.51567 15.1904 9.23667 15.036 9.17593L11.5603 7.81747C11.3443 7.73441 11.1009 7.74423 10.8921 7.84645L7.74053 9.4005C7.33019 9.60352 7.16161 10.1001 7.3639 10.5104C7.56492 10.9176 8.05828 11.0905 8.47336 10.8875Z" fill="#94A3B8"/>
<path d="M24.2678 15.8655C23.959 15.557 23.4596 15.5562 23.1523 15.8662C22.7886 16.2308 22.1526 16.2303 21.7872 15.8658C20.8258 14.9049 19.1495 14.9049 18.1897 15.8667C17.8252 16.2312 17.1906 16.232 16.8242 15.8651C15.8635 14.9049 14.1899 14.9049 13.2289 15.8651L13.214 15.8792C12.8378 16.2417 12.2354 16.2386 11.8622 15.8655C10.8695 14.8738 9.25628 14.8747 8.23326 15.8972C7.88878 16.2417 7.27659 16.2433 6.93011 15.8957C5.98561 14.9511 4.33863 14.9506 3.39257 15.896C2.98022 16.3091 2.25829 16.3091 1.84594 15.896C1.53787 15.588 1.03816 15.5883 0.730134 15.8957C0.42206 16.2037 0.42206 16.7034 0.729694 17.0115C1.23453 17.5163 1.90555 17.7946 2.61923 17.7946C3.33339 17.7946 4.00476 17.5163 4.50872 17.0119C4.85798 16.663 5.46543 16.663 5.81426 17.0111C6.75455 17.9521 8.38219 17.9811 9.38122 16.9817C9.75828 16.6042 10.3708 16.6054 10.7483 16.9828C11.7383 17.9732 13.35 17.9729 14.3424 16.9832L14.3561 16.9691C14.7174 16.6207 15.3539 16.6266 15.7082 16.9805C16.6693 17.943 18.3452 17.9443 19.3063 16.9816C19.6711 16.6163 20.3061 16.6163 20.6714 16.9816C21.6327 17.943 23.3083 17.9415 24.2685 16.9809C24.5762 16.6724 24.5758 16.1731 24.2678 15.8655Z" fill="#94A3B8"/>
</g>
<defs>
<clipPath id="clip0_461_1841">
<rect width="24" height="24" fill="white" transform="translate(0.5)"/>
</clipPath>
</defs>
</svg>
