<svg width="25" height="24" viewBox="0 0 25 24" fill="none" xmlns="http://www.w3.org/2000/svg">
<g clip-path="url(#clip0_461_1844)">
<path d="M7.23411 10.1871C7.45658 11.7025 6.94888 13.2408 5.86567 14.323L1.88478 18.3047C1.04997 19.1395 1.04997 20.4922 1.88574 21.3279C2.71921 22.1624 4.07428 22.1609 4.9063 21.3279L8.88806 17.3462C9.97247 16.2613 11.507 15.7544 13.0244 15.9774C13.7203 16.0799 14.4382 16.0749 15.1577 15.985L7.22651 8.05371C7.13619 8.7733 7.13196 9.49111 7.23411 10.1871Z" fill="#94A3B8"/>
<path d="M21.2143 1.99619C18.2877 -0.930348 13.2143 -0.600586 9.88141 2.73266C9.12407 3.48962 8.52879 4.33881 8.08496 5.23047L17.9809 15.1254C18.8724 14.6822 19.7217 14.0865 20.479 13.3296C23.8115 9.99708 24.1409 4.92283 21.2143 1.99619Z" fill="#94A3B8"/>
<path d="M21.7298 18.6421C20.25 18.6421 19.0508 19.8413 19.0508 21.3212C19.0508 22.801 20.25 24.0002 21.7298 24.0002C23.2092 24.0002 24.4089 22.8009 24.4089 21.3212C24.4089 19.8413 23.2092 18.6421 21.7298 18.6421Z" fill="#94A3B8"/>
</g>
<defs>
<clipPath id="clip0_461_1844">
<rect width="24" height="24" fill="white" transform="translate(0.833984)"/>
</clipPath>
</defs>
</svg>
