<?xml version="1.0" standalone="no"?>
<!DOCTYPE svg PUBLIC "-//W3C//DTD SVG 1.1//EN" "http://www.w3.org/Graphics/SVG/1.1/DTD/svg11.dtd">
<svg xmlns="http://www.w3.org/2000/svg">
<metadata>Copyright (C) 2024 by original authors @ fontello.com</metadata>
<defs>
<font id="fontello" horiz-adv-x="1000" >
<font-face font-family="fontello" font-weight="400" font-stretch="normal" units-per-em="1000" ascent="850" descent="-150" />
<missing-glyph horiz-adv-x="1000" />
<glyph glyph-name="right-open" unicode="&#xe800;" d="M618 361l-414-415q-11-10-25-10t-25 10l-93 93q-11 11-11 25t11 25l296 297-296 296q-11 11-11 25t11 25l93 93q10 11 25 11t25-11l414-414q10-11 10-25t-10-25z" horiz-adv-x="714.3" />

<glyph glyph-name="left-open" unicode="&#xe801;" d="M654 682l-297-296 297-297q10-10 10-25t-10-25l-93-93q-11-10-25-10t-25 10l-414 415q-11 10-11 25t11 25l414 414q10 11 25 11t25-11l93-93q10-10 10-25t-10-25z" horiz-adv-x="714.3" />

<glyph glyph-name="align-left" unicode="&#xe802;" d="M0-89l0 156 1000 0 0-156-1000 0z m0 240l0 156 609 0 0-156-609 0z m0 242l0 156 789 0 0-156-789 0z m0 240l0 157 516 0 0-157-516 0z" horiz-adv-x="1000" />

<glyph glyph-name="reply" unicode="&#xe803;" d="M501 850v-319q110-15 204-45t159-68 118-82 86-91 57-90 35-84 18-69 6-47l1-17q-6 11-19 29t-67 64-125 76-196 52q-77 12-162 12-55 0-115-5v-316l-501 499z" horiz-adv-x="1185" />

<glyph glyph-name="home" unicode="&#xe804;" d="M0-150l0 649 453 351 453-351 0-649-312 0 0 391-281 0 0-391-313 0z" horiz-adv-x="906" />

<glyph glyph-name="right-open-mini" unicode="&#xe805;" d="M13 180l158 170-158 172q-26 26 0 48 26 26 48 0l192-194q24-26 0-50l-192-194q-22-26-48 0-26 22 0 48z" horiz-adv-x="265" />

<glyph glyph-name="home-1" unicode="&#xe806;" d="M888 336q16-16 11-27t-27-11l-84 0 0-310q0-14-1-21t-8-13-23-6l-204 0 0 310-204 0 0-310-194 0q-28 0-35 10t-7 30l0 310-84 0q-22 0-27 11t11 27l400 402q16 16 38 16t38-16z" horiz-adv-x="900" />

<glyph glyph-name="menu" unicode="&#xe807;" d="M650 400q22 0 36-15t14-35-15-35-35-15l-600 0q-20 0-35 15t-15 35 14 35 36 15l600 0z m-600 100q-20 0-35 15t-15 35 14 35 36 15l600 0q22 0 36-15t14-35-15-35-35-15l-600 0z m600-300q22 0 36-15t14-35-15-35-35-15l-600 0q-20 0-35 15t-15 35 14 35 36 15l600 0z" horiz-adv-x="700" />

<glyph glyph-name="picture" unicode="&#xe808;" d="M856 518l-100 0-124 150-214-150-180 0q-52 0-90-39t-38-91l0-160-108 296q-10 38 22 52l680 248q36 10 50-24z m106-90q16 0 27-12t11-28l0-472q0-16-11-28t-27-12l-724 0q-16 0-27 12t-11 28l0 472q0 16 11 28t27 12l724 0z m-56-452l0 162-72 160-166-60-130-132-138 170-92-214 0-86 598 0z" horiz-adv-x="1000" />

<glyph glyph-name="mic-outline" unicode="&#xe809;" d="M365 142q-86 0-147 61t-62 147l0 313q0 86 62 147t147 62 147-62 61-147l0-313q0-86-61-147t-147-61z m0 625q-44 0-74-31t-31-73l0-313q0-42 31-73t74-30q43 0 73 30t31 73l0 313q0 42-31 73t-73 31z m364-417q0-136-90-238t-223-122l0-56 157 0q21 0 36-16t16-37-16-36-36-16l-417 0q-21 0-37 16t-15 36 15 37 37 16l157 0 0 56q-134 19-224 122t-89 238l0 104q0 21 16 37t37 16 36-16 15-37l0-104q0-107 77-183t184-77 184 77 76 183l0 104q0 21 16 37t37 16 36-16 15-37l0-104z" horiz-adv-x="729" />

<glyph glyph-name="recoveryicon" unicode="&#xe80a;" d="M142 849c-9-1-18-7-24-16l-111-166c-9-14-9-34 0-49l104-155v-358c0-3 1-5 1-8l37-207c1-16 10-31 23-37 14-6 30-3 40 9 11 11 14 28 9 44l-35 195 36 128 109-54-94-78c-16-13-20-39-8-58 12-19 36-23 52-9l148 124c11 9 17 23 15 37-1 15-9 28-21 34l-14 8-101 86 25 145 104 154c10 15 10 35 0 49l-111 166c-8 12-22 19-36 16-13-2-24-11-29-25-5-13-3-29 5-41l95-140-59-88c-19-19-47-37-80-37-40 0-82 46-104 73-1 1-2 3-3 4l-31 48 94 140c10 14 11 33 3 47-8 15-23 22-39 19z m80-124c-41 0-74-37-74-82 0-46 33-83 74-83 41 0 74 37 74 83 0 45-33 82-74 82z" horiz-adv-x="444" />

<glyph glyph-name="strengthicon" unicode="&#xe80b;" d="M436 850c-35 0-63-28-63-62v-876c0-34 28-62 63-62h62c34 0 62 28 62 62v344h436v-344c0-34 27-62 62-62h62c34 0 62 28 62 62v876c0 34-28 62-62 62h-62c-35 0-62-28-62-62v-344h-436v344c0 34-28 62-62 62h-62z m-218-125c-35 0-62-28-62-62v-625c0-35 27-63 62-63h93v750h-93z m1026 0v-750h94c34 0 62 28 62 63v625c0 34-28 62-62 62h-94z m-1213-281c-17 0-31-14-31-31v-125c0-18 14-32 31-32h62v188h-62z m1431 0v-188h62c18 0 32 14 32 32v125c0 17-14 31-32 31h-62z" horiz-adv-x="1556" />

<glyph glyph-name="enduranceicon" unicode="&#xe80c;" d="M637 850c-26 0-51-10-69-29-18-19-29-44-29-71 0-26 11-52 29-71 18-18 43-29 69-29 26 0 51 11 70 29 18 19 28 45 28 71 0 27-10 52-28 71-19 19-44 29-70 29z m-311-146l-208-110 45-88 173 90 60-18-89-178c-8-15-13-33-13-50 0-15 3-29 10-43 6-13 15-25 26-34 0 0 1-1 1-1l152-144 0-1-88-242 92-35 108 298 0 0-106 175 64 132 71-105h209v100h-157l-101 150 0 0c-7 12-16 22-27 30-10 8-22 14-35 17l-1 0-186 57z m-59-474l-28-30h-239v-100h282l56 62-71 68z" horiz-adv-x="833" />

<glyph glyph-name="nutritionicon" unicode="&#xe80d;" d="M700 700c-54 0-105-16-150-41v191h-100v-167c-12 30-29 61-55 87-75 75-195 80-195 80 0 0 4-83 49-154-141-25-249-148-249-296 0-350 290-550 400-550 35 0 70 10 100 30 30-15 65-30 100-30 110 0 400 250 400 550 0 165-135 300-300 300z m-300-500c0 0-50 50-50 100 0 50 50 100 50 100 0 0 50-50 50-100 0-50-50-100-50-100z m200 0c0 0-50 50-50 100 0 50 50 100 50 100 0 0 50-50 50-100 0-50-50-100-50-100z" horiz-adv-x="1000" />

<glyph glyph-name="wellbeingicon" unicode="&#xe80e;" d="M401 850c205 0 373-152 399-348l112-177c8-12 6-29-11-37l-98-41v-147c0-55-45-100-100-100h-101l0-150h-451v185c0 59-22 115-63 165-55 69-88 155-88 250 0 221 180 400 401 400z m-26-288c-34 34-90 34-124 0-35-34-35-90 0-124l150-150 151 150c35 34 35 90 0 124-34 34-90 34-124 0l-27-27-26 27z" horiz-adv-x="917" />

<glyph glyph-name="report" unicode="&#xe80f;" d="M110 850c-61 0-110-50-110-112v-776c0-62 49-112 110-112h563c60 0 110 50 110 112v488h-282c-60 0-110 50-110 113v287h-281z m355-22v-265c0-21 16-38 36-38h260l-296 303z m122-503c27 0 49-22 49-50 0-26-20-48-46-50l-101-103c-2-26-23-47-49-47-26 0-47 21-48 47l-74 75-74-75c-1-26-22-47-48-47-27 0-49 22-49 50 0 26 20 48 45 50l77 78c2 26 23 47 49 47 26 0 47-21 49-47l73-75 98 100c2 26 23 47 49 47z" horiz-adv-x="783" />

<glyph glyph-name="stats" unicode="&#xe810;" d="M215 513c0 62-48 112-107 112-60 0-108-50-108-112 0-48 0-503 0-551 0-62 48-112 108-112 59 0 107 50 107 112 0 48 0 503 0 551z m694 225c0 62-48 112-108 112-59 0-107-50-107-112 0-48 0-728 0-776 0-62 48-112 107-112 60 0 108 50 108 112 0 48 0 728 0 776z m-347-450c0 62-48 112-107 112-60 0-108-50-108-112 0-48 0-278 0-326 0-62 48-112 108-112 59 0 107 50 107 112 0 48 0 278 0 326z" horiz-adv-x="909" />

<glyph glyph-name="person" unicode="&#xe811;" d="M500 850c-59 0-115-23-157-65-42-42-65-98-65-157 0-59 23-116 65-157 42-42 98-65 157-65 59 0 116 23 157 65 42 41 65 98 65 157 0 59-23 115-65 157-41 42-98 65-157 65z m0-611c-167 0-500-84-500-250v-83c0-31 25-56 56-56h888c31 0 56 25 56 56v83c0 166-333 250-500 250z" horiz-adv-x="1000" />

<glyph glyph-name="clock" unicode="&#xe812;" d="M500 850c-276 0-500-224-500-500 0-276 224-500 500-500 276 0 500 224 500 500 0 276-224 500-500 500z m165-735l-215 214v321h100v-279l185-186-70-70z" horiz-adv-x="1000" />

<glyph glyph-name="distance" unicode="&#xe813;" d="M240 819c-132 0-240-107-240-238 0-56 21-111 58-154 4-5 99-111 130-141 15-13 34-20 52-20 19 0 38 7 52 20 37 35 127 136 131 141 37 43 58 98 58 154 0 131-108 238-241 238z m0-301c-33 0-60 27-60 60 0 34 27 61 60 61 34 0 61-27 61-61 0-33-27-60-61-60z m457-84c-132 0-240-106-240-237 0-57 20-112 58-155 4-4 98-110 130-140 15-14 33-21 52-21 19 0 38 7 52 21 37 35 127 136 131 140 37 43 58 98 58 155 0 131-108 237-241 237z m0-300c-33 0-60 27-60 60 0 33 27 60 60 60 33 0 60-27 60-60 0-33-27-60-60-60z" horiz-adv-x="938" />

<glyph glyph-name="heart" unicode="&#xe814;" d="M802 850c-154-6-239-116-239-116 0 0-86 110-240 116-103 4-198-47-260-128-218-284 194-615 290-704 58-53 130-117 172-154 22-19 53-19 75 0 42 37 114 101 172 154 96 89 508 420 291 704-63 81-158 132-261 128z" horiz-adv-x="1125" />

<glyph glyph-name="vo2" unicode="&#xe815;" d="M299 835c-7 0-14-2-20-5-5-4-10-9-13-15h0l-261-483 0 0c-3-6-5-13-5-19 0-10 4-20 11-27 7-7 16-11 26-11h150v-373c0-10 4-19 11-26 7-7 16-11 26-11 7 0 14 2 19 5 6 4 11 9 14 15h0l262 487 0 0c2 5 4 10 4 15 0 21-17 38-38 38h-149v373c0 10-4 19-11 26-7 7-16 11-26 11z" horiz-adv-x="550" />

<glyph glyph-name="ai" unicode="&#xe816;" d="M746 668l-116-272-278-114 278-114 116-273 115 273 278 114-278 114-115 272z m-527-130l64-188 63 188 191 62-191 63-63 187-64-187-191-63 191-62z m104-489l-40 119-41-119-121-40 121-40 41-119 40 119 122 40-122 40z" horiz-adv-x="1167" />

<glyph glyph-name="people" unicode="&#xe817;" d="M708 850c-54 0-107-23-146-64-38-41-60-97-60-155 0-58 22-113 60-154 39-41 92-64 146-64 55 0 108 23 146 64 39 41 61 96 61 154 0 58-22 114-61 155-38 41-91 64-146 64z m-442-187c-39 0-77-17-105-46-27-30-43-69-43-111 0-41 16-81 43-110 28-29 66-46 105-46 39 0 76 17 104 46 28 29 43 69 43 110 0 42-15 81-43 111-28 29-65 46-104 46z m885 0c-39 0-77-17-104-46-28-30-43-69-43-111 0-41 15-81 43-110 27-29 65-46 104-46 39 0 77 17 104 46 28 29 44 69 44 110 0 42-16 81-44 111-27 29-65 46-104 46z m-443-375c-138 0-413-74-413-219v-219h827v219c0 145-276 219-414 219z m-478-66c-93-15-230-84-230-166v-206h177v219c0 60 21 110 53 153z m957 0c32-43 53-93 53-153v-219h177v206c0 82-137 151-230 166z" horiz-adv-x="1417" />

<glyph glyph-name="sources" unicode="&#xe818;" d="M780 821c-30 0-59-9-85-25-25-16-46-38-59-65-13-27-19-57-16-87 3-30 14-59 33-82l-138-175h-197c-9 35-29 67-57 89-29 23-64 35-100 35-43 0-84-17-114-47-30-30-47-71-47-114 0-43 17-84 47-114 30-30 71-47 114-47 36 0 71 12 100 35 28 22 48 54 56 89h198l138-175c-19-23-30-52-33-82-3-30 3-60 16-87 13-27 34-49 59-65 26-16 55-25 85-25 43 0 84 17 114 48 30 30 47 71 47 113 0 43-17 84-47 114-30 30-71 47-114 47-24 0-48-5-70-16l-130 165 130 165c22-11 46-16 70-16 43 0 84 17 114 47 30 30 47 71 47 114 0 42-17 83-47 113-30 31-71 48-114 48z" horiz-adv-x="941" />

<glyph glyph-name="book" unicode="&#xe819;" d="M117 850c-65 0-117-52-117-117v-700c0-5 1-10 3-15 2-4 5-9 9-12 13-49 51-89 105-89h622c5 0 10 1 15 2 5 2 9 5 13 9 3 3 6 8 8 12 2 5 3 10 3 16 0 5-1 10-3 15-2 4-5 9-8 12-4 4-8 7-13 9-5 2-10 2-15 2h-622c-22 0-39 17-39 39 0 22 17 39 39 39h583c43 0 78 35 78 78v622c0 43-35 78-78 78h-583z m155-233h272c22 0 39-18 39-39 0-22-17-39-39-39h-272c-21 0-39 17-39 39 0 21 18 39 39 39z" horiz-adv-x="833" />

<glyph glyph-name="add" unicode="&#xe81a;" d="M499 845c-10 0-20-4-27-11-7-8-11-18-11-28v-417h-417c-5 0-10-1-15-3-5-2-9-4-13-8-3-4-6-8-8-13-2-5-3-10-3-15 0-5 1-10 3-15 2-5 5-9 8-13 4-3 8-6 13-8 5-2 10-3 15-3h417v-417c0-5 1-10 3-15 2-5 5-9 8-13 4-3 8-6 13-8 5-2 10-3 15-3 5 0 10 1 15 3 5 2 9 5 13 8 3 4 6 8 8 13 2 5 3 10 3 15v417h417c5 0 10 1 15 3 5 2 9 5 13 8 3 4 6 8 8 13 2 5 3 10 3 15 0 5-1 10-3 15-2 5-5 9-8 13-4 4-8 6-13 8-5 2-10 3-15 3h-417v417c0 5-1 10-3 15-2 5-5 9-8 13-4 4-8 7-13 9-5 2-10 2-16 2z" horiz-adv-x="1000" />

<glyph glyph-name="close-icon-fill" unicode="&#xe81b;" d="M500 826c-263 0-476-213-476-476 0-263 213-476 476-476 263 0 476 213 476 476 0 263-213 476-476 476z m180-605c14-14 14-37 0-51-7-7-16-10-25-10-9 0-18 3-25 10l-130 130-129-130c-7-7-17-10-26-10-9 0-18 3-25 10-14 14-14 37 0 51l130 129-130 130c-14 14-14 36 0 50 14 14 37 14 51 0l129-129 130 129c13 14 36 14 50 0 14-14 14-36 0-50l-129-130 129-129z" horiz-adv-x="1000" />

<glyph glyph-name="csv" unicode="&#xe81c;" d="M796 550l-250 250c-7 8-17 12-27 12h-404c-42 0-76-35-76-77v-808c0-43 34-77 76-77h616c42 0 77 34 77 77v596c0 10-4 20-12 27z m-536-435c9 0 19 2 26 4l5-45c-8-3-23-6-41-6-70 0-103 57-103 134 0 103 57 143 110 143 19 0 31-4 37-7l-9-45c-6 3-13 6-25 6-30 0-57-26-57-94 0-65 25-90 57-90z m133-47c-22 0-43 6-52 11l7 46c11-6 30-11 45-11 25 0 37 13 37 31 0 20-12 29-35 44-37 23-51 51-51 76 0 44 29 80 85 80 19 0 36-5 43-10l-8-45c-8 5-20 9-35 9-22 0-33-14-33-28 0-16 8-25 37-43 36-21 49-49 49-78 0-49-36-82-89-82z m244 2h-59l-61 273h59l19-118c4-29 10-62 14-94h0c4 32 9 65 13 95l19 117h58l-62-273z m-98 434c-22 0-39 17-39 38v196l235-234h-196z" horiz-adv-x="846" />

<glyph glyph-name="extras" unicode="&#xe81d;" d="M399 747c-97 0-191-39-260-107-69-69-107-163-107-260 0-98 38-191 107-260 69-69 163-108 260-108 97 0 191 39 260 108 69 69 107 162 107 260 0 97-38 191-107 260-69 68-163 107-260 107z m1102 0c-97 0-191-39-260-107-69-69-107-163-107-260 0-98 38-191 107-260 69-69 163-108 260-108 97 0 191 39 260 108 69 69 107 162 107 260 0 97-38 191-107 260-69 68-163 107-260 107z m1102 0c-97 0-191-39-260-107-68-69-107-163-107-260 0-98 39-191 107-260 69-69 163-108 260-108 98 0 191 39 260 108 69 69 108 162 108 260 0 97-39 191-108 260-69 68-162 107-260 107z" horiz-adv-x="3000" />

<glyph glyph-name="pdf" unicode="&#xe81e;" d="M73 850c-40 0-73-36-73-80v-840c0-44 33-80 73-80h582c40 0 72 36 72 80v620c0 11-3 21-10 28l-237 260c-7 8-16 12-25 12h-382z m363-76l222-244h-185c-20 0-37 18-37 40v204z m-270-411c11 0 22-1 33-3 11-2 21-7 29-14 9-6 15-16 21-28 5-12 8-28 8-47 0-18-2-33-7-45-4-12-10-22-18-30-7-8-16-13-26-17-10-3-20-5-30-5h-5c-2 0-5 0-7 0-2 0-5 1-7 1-2 0-4 0-5 1v-97h-46v277c9 3 19 4 29 5 10 2 21 2 31 2z m185 0c20 0 37-3 50-10 14-7 25-16 33-29 8-12 13-27 17-44 3-18 5-37 5-58 0-20-2-38-5-56-3-18-9-33-17-47-8-13-20-24-34-32-14-8-31-12-53-12-3 0-7 0-13 0-5 1-10 1-16 1-6 1-12 1-17 1-5 1-9 1-12 2v280c4 1 9 2 14 2 6 0 11 1 17 1 6 1 11 1 17 1 5 0 10 0 14 0z m141-4h128v-46h-82v-73h75v-46h-75v-115h-46v280z m-321-41c-8 0-14 0-19-2v-95c1-1 4-1 8-2 4 0 7 0 8 0 6 0 11 1 16 2 5 2 9 5 13 8 3 4 6 10 9 16 2 7 3 16 3 26 0 9-1 17-3 23-2 6-5 11-9 14-3 4-7 6-12 8-4 2-9 2-14 2z m185-1c-4 0-8 0-12 0-4-1-7-1-9-1v-193c0 0 2-1 3-1 2 0 4 0 6 0 2 0 4 0 6-1 2 0 3 0 4 0 11 0 20 3 27 9 7 5 12 13 16 22 4 9 7 20 9 32 1 12 2 25 2 38 0 13-1 25-2 36-1 11-4 22-8 30-3 9-9 16-16 21-6 5-15 8-26 8z" horiz-adv-x="727" />

<glyph glyph-name="redo" unicode="&#xe81f;" d="M580 818c-239 0-435-183-458-416l-30 30c-5 5-10 9-17 12-6 2-13 4-20 4-10 0-20-3-28-9-9-6-15-14-19-23-4-10-5-20-3-30 3-10 8-19 15-26l115-115c9-9 22-15 36-15 13 0 26 6 36 15l115 115c5 5 9 10 11 17 3 6 5 13 5 19 0 7-2 14-4 20-3 7-6 12-11 17-5 5-11 9-17 11-6 3-13 4-20 4-7 0-13-1-20-4-6-3-12-7-16-12l-24-23c24 173 173 307 354 307 113 0 213-53 279-135 4-6 9-10 15-14 6-3 13-6 19-6 7-1 14-1 21 1 6 2 12 5 18 9 5 5 10 10 13 16 3 6 5 13 6 19 0 7 0 14-2 21-2 6-6 12-10 17-84 106-214 174-359 174z m382-334c-13 0-26-6-35-15l-115-115c-5-5-9-10-12-16-2-7-4-13-4-20 0-7 1-14 4-20 2-6 6-12 11-17 5-5 11-8 17-11 6-3 13-4 20-4 6 0 13 2 19 4 7 3 12 7 17 12l23 23c-25-173-173-305-353-305-113 0-213 53-279 134-4 6-9 10-15 13-6 3-12 5-19 6-7 1-13 0-20-2-6-1-12-5-18-9-5-4-9-9-12-15-4-6-6-12-6-19-1-7-1-13 1-20 2-6 5-12 10-18 84-105 213-172 358-172 238 0 434 182 458 414l30-30c4-5 10-9 16-12 6-2 13-4 20-4 7 0 14 1 20 4 6 3 12 6 17 11 4 5 8 11 11 17 2 6 4 13 4 20 0 7-2 13-5 20-2 6-6 11-11 16l-115 115c-5 5-11 9-17 11-6 3-13 4-20 4z" horiz-adv-x="1158" />

<glyph glyph-name="response" unicode="&#xe820;" d="M0 806v-131h1462v131h-1462z m0-391v-130h1124v130h-1124z m0-390v-131h787v131h-787z" horiz-adv-x="1462" />

<glyph glyph-name="save" unicode="&#xe821;" d="M445 838v-96h96v96h-96z m0-192v-412l-158 158-68-68 274-274 274 274-68 68-158-158v412h-96z m-432-528v-144c0-53 43-96 96-96h768c52 0 96 43 96 96v144h-96v-144h-768v144h-96z" horiz-adv-x="1000" />

<glyph glyph-name="sources-1" unicode="&#xe822;" d="M529 839c-54 0-98-46-98-103 0-37 19-69 47-87l-209-197c-3 0-6 1-9 1-54 0-98-46-98-103 0-40 22-75 55-92l-99-185c-2-3-3-6-4-9-43-12-75-52-75-100 0-57 44-103 98-103 54 0 98 46 98 103 0 36-18 68-45 87l70 130 70-130c-27-19-46-51-46-87 0-57 44-103 98-103 54 0 98 46 98 103 0 48-31 88-74 100-1 3-2 6-4 9l-99 185c32 17 55 52 55 92 0 24-8 45-21 62l194 183 199-172c-18-18-29-44-29-73 0-40 23-75 55-92l-99-185c-2-3-3-6-4-9-43-12-75-52-75-100 0-57 44-103 99-103 54 0 98 46 98 103 0 36-19 68-46 87l70 130 70-130c-27-19-45-51-45-87 0-57 44-103 98-103 54 0 98 46 98 103 0 48-32 88-75 100-1 3-2 6-4 9l-99 185c33 17 55 52 55 92 0 51-36 94-83 101l-231 199c27 18 44 50 44 86 0 57-43 103-98 103z" horiz-adv-x="1059" />

<glyph glyph-name="web" unicode="&#xe823;" d="M464 832c-145 0-274-70-356-178h-1v-2c-56-74-89-166-89-266 0-246 200-447 446-447 15 0 30 1 45 3v73 371h-179v89h45c25 0 45 20 45 45v89h89c49 0 89 40 89 89v19c131-54 223-182 223-331 0-5 0-10 0-15l80-77c6 30 10 60 10 92 0 246-201 446-447 446z m134-357v-446l102 96 91-209 98 45-92 202h126l-325 312z m-481-9l79-80 134-134v-45c0-49 40-89 90-89v-86c-176 22-313 172-313 354 0 27 4 54 10 80z" horiz-adv-x="929" />

<glyph glyph-name="create" unicode="&#xe824;" d="M921 831c-15 0-31-5-43-17l-460-460-20-106 106 20 460 460c11 12 18 27 18 43 0 16-7 31-18 43-12 12-27 17-43 17z m-759-27c-84 0-153-69-153-153v-639c0-84 69-153 153-153h639c84 0 153 69 153 153v458c0 8-2 15-4 22-3 7-7 13-12 18-5 5-12 10-18 12-7 3-14 5-22 5-7 0-14-2-21-5-7-2-13-7-18-12-6-5-10-11-12-18-3-7-4-14-4-22v-458c0-24-18-42-42-42h-639c-24 0-42 18-42 42v639c0 24 18 42 42 42h458c8 0 15 1 22 4 7 2 13 6 18 12 5 5 10 11 12 18 3 7 5 14 5 21 0 8-2 15-5 22-2 6-7 13-12 18-5 5-11 9-18 12-7 2-14 4-22 4h-458z" horiz-adv-x="1000" />

<glyph glyph-name="search" unicode="&#xe825;" d="M406 836c-216 0-392-176-392-391 0-216 176-392 392-392 88 0 169 30 235 80l253-253c5-6 11-10 17-13 7-2 14-4 21-4 8 0 15 1 21 4 7 3 13 7 18 12 5 5 9 11 12 18 3 6 4 13 4 21 0 7-2 14-4 21-3 6-7 12-13 17l-253 253c50 66 80 147 80 236 0 215-176 391-391 391z m0-108c157 0 283-126 283-283 0-76-29-144-77-195-5-3-9-7-12-12-51-48-119-77-194-77-158 0-284 126-284 284 0 157 126 283 284 283z" horiz-adv-x="1000" />

<glyph glyph-name="updated" unicode="&#xe826;" d="M476 810c-240 0-436-196-436-436 0-241 196-437 436-437 22 0 43 2 63 5 48-56 120-92 199-92 144 0 262 118 262 262 0 144-118 262-262 262-144 0-262-118-262-262 0-30 6-59 15-86-5-1-10-1-15-1-193 0-349 155-349 349 0 193 156 349 349 349 75 0 143-23 199-63l-68-68h218v218l-87-87c-73 55-164 87-262 87z m384-580l61-61-205-206-139 140 61 61 78-78 144 144z" horiz-adv-x="1000" />

<glyph glyph-name="athleaiconsvg" unicode="&#xe827;" d="M511 850c-72 0-139-15-198-42 18 0 35 1 66 2h0c85 0 157-45 200-110 46-69 46-148 45-216-4-163 91-217 175-217 121 0 170 97 172 189 2 193-236 392-450 394-3 0-7 0-10 0z m145-115c51-22 99-55 140-96 58-58 91-124 90-181-1-40-13-108-87-108-14 0-41 3-61 23-20 21-31 59-29 109 1 66 2 163-53 253z m-368-10c-36 0-72-8-103-24-176-94-239-403-134-592 38-70 89-127 148-168-14 20-25 35-40 62-43 75-39 161 0 231 40 75 111 115 174 148 150 77 145 185 110 262-26 55-90 81-155 81z m1-83c30 0 66-10 77-33 21-46 30-101-73-154-61-32-152-80-206-177-6 58-1 120 17 178 24 81 69 144 121 171 17 10 41 15 64 15z m711-416c-41-57-141-109-222-109-88 0-169 30-230 68-47 29-90 40-135 40-70 0-116-35-144-83-47-80 8-204 94-253 47-27 101-39 157-39 163 0 345 102 425 243 26 42 44 87 55 133z m-587-84c32 0 59-8 90-28 59-36 155-80 275-80 2 0 4 0 6 0-75-61-174-101-264-101-44 0-82 10-114 28-30 17-56 52-66 88-5 21-5 39 3 52 16 29 37 41 70 41z" horiz-adv-x="1000" />

<glyph glyph-name="ok" unicode="&#xe828;" d="M933 534q0-22-16-38l-404-404-76-76q-16-15-38-15t-38 15l-76 76-202 202q-15 16-15 38t15 38l76 76q16 16 38 16t38-16l164-165 366 367q16 16 38 16t38-16l76-76q16-15 16-38z" horiz-adv-x="1000" />

<glyph glyph-name="comment" unicode="&#xe829;" d="M1000 350q0-97-67-179t-182-130-251-48q-39 0-81 4-110-97-257-135-27-8-63-12-10-1-17 5t-10 16v1q-2 2 0 6t1 6 2 5l4 5t4 5 4 5q4 5 17 19t20 22 17 22 18 28 15 33 15 42q-88 50-138 123t-51 157q0 73 40 139t106 114 160 76 194 28q136 0 251-48t182-130 67-179z" horiz-adv-x="1000" />

<glyph glyph-name="right-arrow-long" unicode="&#xe82a;" d="M282 100c6 0 12 2 17 5 5 4 9 8 12 14 2 6 2 12 1 18-1 6-4 12-9 16l-155 155h779c4 0 8 1 12 3 4 1 8 3 11 6 2 3 5 7 6 11 2 3 3 7 3 12 0 4-1 8-3 12-1 4-4 7-6 10-3 3-7 5-11 7-4 1-8 2-12 2h-779l155 155c3 3 6 6 7 10 2 4 3 8 3 12 0 4-1 8-2 12-2 4-4 8-7 11-3 2-7 5-10 6-4 2-8 3-13 3-4 0-8-1-12-3-3-2-7-4-10-7l-208-208c-6-6-9-14-9-22 0-9 3-17 9-22l208-209c3-3 7-5 10-7 4-1 8-2 13-2z" horiz-adv-x="1000" />

<glyph glyph-name="male" unicode="&#xe82b;" d="M581 835v-81h266l-311-311c-65 51-147 75-229 67-82-8-158-46-213-108-54-62-83-142-81-225 3-82 37-161 95-219 58-58 137-92 219-95 83-2 163 26 225 81 62 55 101 131 108 213 8 82-16 164-67 229l311 311v-266h81v404h-404z m-243-889c-47 0-94 14-134 41-40 27-71 64-89 109-19 44-24 93-14 140 9 47 32 90 66 124 34 34 77 57 124 66 47 10 96 5 140-14 45-18 82-49 109-89 27-40 41-87 41-135 0-64-26-125-71-171-46-45-107-71-172-71z" horiz-adv-x="1000" />

<glyph glyph-name="other" unicode="&#xe82c;" d="M457 850v-74h137l-168-163c-45 32-99 52-159 52-147 0-267-117-267-259 0-131 100-238 228-256v-115h-114v-74h114v-111h77v111h114v74h-114v115c128 18 228 125 228 256 0 58-20 111-53 155l167 163v-133h76v259h-266z m-190-259c105 0 190-83 190-185 0-103-85-186-190-186-106 0-191 83-191 186 0 102 85 185 191 185z" horiz-adv-x="723" />

<glyph glyph-name="woman" unicode="&#xe82d;" d="M361 129c-199 0-361 162-361 361 0 198 162 360 361 360 198 0 360-162 360-360 0-199-162-361-360-361z m0 651c-161 0-291-130-291-290 0-161 130-291 291-291 160 0 290 130 290 291 0 160-130 290-290 290z m0-930c-20 0-35 16-35 35v279c0 19 15 35 35 35 19 0 34-16 34-35v-279c0-19-15-35-34-35z m139 139h-279c-19 0-35 16-35 35 0 20 16 35 35 35h279c19 0 35-15 35-35 0-19-16-35-35-35z" horiz-adv-x="727" />

<glyph glyph-name="repost" unicode="&#xe82e;" d="M736 465c-11 0-22-5-30-13-8-7-12-18-12-29v-176c0-36-14-71-40-97-26-25-60-39-96-40h-222l75 75c8 8 12 18 12 29 0 11-5 22-13 29-7 8-18 12-29 13-11 0-21-4-29-12l-146-146c-8-8-12-18-12-29 0-1 0-2 0-3 1-10 5-20 12-27l146-146c8-7 18-12 29-11 11 0 22 4 29 12 8 7 13 18 13 29 0 11-4 21-12 29l-75 75h222c58 0 114 23 155 65 41 41 64 97 64 155v176c0 11-4 22-12 29-8 8-18 13-29 13z m-267 145l-75-75c-4-3-7-8-10-13-2-5-3-11-3-16 0-6 1-11 3-16 2-5 5-10 9-14 4-4 9-7 14-9 5-2 10-3 16-3 6 0 11 1 16 3 5 2 10 6 14 10l145 145c8 8 13 19 13 30 0 11-5 22-13 29l-145 146c-8 8-19 12-30 12-11 0-21-5-29-12-8-8-12-18-12-29 0-11 4-22 12-30l74-74h-221c-58-1-114-24-155-65-41-41-65-97-65-155v-176c0-11 5-22 13-30 7-8 18-12 29-12 11 0 22 4 29 12 8 8 13 19 13 30v176c0 36 14 71 40 96 25 26 60 40 96 40h222z" horiz-adv-x="778" />

<glyph glyph-name="share-arrow" unicode="&#xe82f;" d="M76 837l1000 0c18 0 35-10 43-26 9-15 9-34 0-50l-515-867c-11-17-30-27-51-24-20 3-36 18-41 38l-120 499-351 344c-15 14-19 36-11 55 7 18 26 31 46 31z m418-430l87-356 358 602-445-246z m389 330l-685 0 247-243 438 243z" horiz-adv-x="1133" />

<glyph glyph-name="heart-border" unicode="&#xe830;" d="M12 500c0 196 140 338 323 338 84 0 155-30 206-80 52 50 123 80 206 80 184 0 324-142 324-338 0-114-49-223-130-324-80-102-195-197-332-284l0 0 0 0c-8-5-18-11-29-15-9-4-23-9-39-9-15 0-29 5-38 9-11 4-21 10-29 15l-1 0 0 0c-137 87-251 182-332 284-81 101-129 210-129 324z m323 250c-131 0-235-100-235-250 0-88 37-178 110-270 72-91 178-180 310-263 6-4 12-7 17-9 2-1 3-1 4-2 1 1 3 1 4 2 5 2 11 5 17 9 132 83 238 172 310 263 73 92 110 182 110 270 0 151-103 250-235 250-76 0-135-34-170-85l-36-52-36 52c-34 50-93 85-170 85z" horiz-adv-x="1118" />

<glyph glyph-name="comment-border" unicode="&#xe831;" d="M458 837c118 8 234-27 328-99 93-71 158-174 181-290 21-109 5-223-47-321l54-203c5-16 0-32-11-43-11-11-28-15-43-11l-200 56c-98-53-211-70-321-49-115 22-219 86-291 179-72 93-108 209-101 327 7 117 57 228 140 312 83 84 193 134 311 142z m274-169c-77 59-172 88-268 81-96-6-187-48-255-116-68-69-108-159-114-256-6-96 23-191 82-267 60-76 144-128 239-146 95-19 193-2 276 47 10 6 23 8 34 5l143-40-39 145c-3 11-1 24 4 34 49 83 65 181 46 276-19 94-71 179-148 237z" horiz-adv-x="1000" />

<glyph glyph-name="cycling" unicode="&#xe832;" d="M313 53c-21-15-46-25-74-25-68 0-123 55-123 122 0 68 55 123 123 123 51 0 94-32 113-76l38 40c-30 52-86 88-151 88-97 0-175-78-175-175 0-97 78-175 175-175 45 0 86 18 118 46-12 4-24 11-33 20-4 4-8 8-11 12z m266 271l-93 54c42 26 26 16 68 42l-2-13c-2-23 15-43 35-47 1 0 163-28 169-28 21 0 40 15 43 37 4 24-12 46-36 50l-119 20 5 57c6 36 9 48-5 70l-17 27c-22 35-69 46-104 24l-187-117c-46-29-69-90-31-134 14-18 157-105 157-105l-115-120c-21-21-20-55 1-75 10-10 23-14 37-14 13 0 27 5 37 16l168 174c24 24 18 65-11 82z m197 239c41 26 53 80 27 121-25 41-79 53-120 28-42-26-54-80-28-121 25-41 80-54 121-28z m-15-238c-97 0-175-80-175-175 0-97 79-175 175-175 97 0 175 78 175 175 0 97-78 175-175 175z m0-297c-67 0-122 55-122 122 0 68 55 123 122 123 68 0 123-55 123-123 0-67-55-122-123-122z" horiz-adv-x="1000" />

<glyph glyph-name="badminton" unicode="&#xe833;" d="M871 526c-10 21-35 32-58 21l-377-170-77 133c-8 13-21 21-38 21-4 0-6 0-9-1l-46 82c27 21 38 70 14 114-26 43-75 69-117 46-42-23-47-79-24-122 17-33 50-54 82-54 6 0 15 1 21 3l46-84c-12-13-14-33-4-49l95-167c11-19 35-27 55-17l73 32 54-148-33-66-106-95c-20-19-21-50-2-70 18-20 49-22 69-3l113 102c6 4 8 10 11 15l44 94 84-29v-142c0-26 21-49 49-49 28 0 50 21 50 49v177c0 20-13 38-32 47l-88 30-57 159 186 85c22 9 33 34 22 56z m-486 134c5 0 8 2 12 2l-11 79-8-1c-22-3-36-25-34-46 4-19 20-34 41-34z m92-6c11-2 19 8 15 17l-13 91c-2 10-11 15-19 10l-49-24 13-86 53-8z m-40-128c0-42 35-77 77-77 41 0 76 34 76 77 0 42-33 77-76 77-42 0-77-34-77-77z" horiz-adv-x="1000" />

<glyph glyph-name="dancing" unicode="&#xe834;" d="M857 512c-28 6-56 12-84 17-54 11-106 8-152-27-7-6-14-10-23-15-13 23-12 34-25 57-11 19-40 22-56 13-16-8-27-34-17-52 17-34 34-67 52-100 12-24 32-29 55-14 11 7 42 25 55 33-1-33-2-63-4-94 0-3-4-7-6-10-22-27-52-66-76-91-23-25-35-58-24-90 13-38 21-79 32-118 5-18 22-39 54-29 32 9 32 42 29 60-5 33-4 45-21 115 15-4 27-8 40-9 10-2 13-6 14-15 11-47 21-95 32-142 3-17 25-31 46-25 20 6 31 25 29 42-5 41-2 13-20 148 23 10 46 18 69 28-13 31-43 55-57 84-15 29-24 59-14 92 0 0-1-7 9 75 17-3 20-5 36-8-3-25-7-49-10-73-2-17 6-44 32-48 27-4 52 23 55 40 8 33 11 46 18 79 10 39-42 72-68 77z m-486-79c4 19 8 37 22 53 15 17 140 162 159 185 28 33-17 76-49 41-44-46-88-93-133-140-25-27-40-19-228-62-14-3-25-10-29-25-11-39-21-78-32-117-5-18 0-34 17-39 17-5 47 3 54 20 11 30 22 59 33 89 1 2 3 6 5 6 18 4 36 7 55 10-9-43-17-85-27-126-4-16-3-30 3-43-44-78-104-186-144-258-9-16-1-37 15-46 16-9 37-5 47 11 41 62 101 159 145 228 17-15 34-30 51-46 5-4 9-11 10-17 11-50 21-101 32-151 2-13 10-23 23-27 27-10 49 12 45 44-7 58-14 115-22 173-3 27-23 39-74 97-3 4-5 11-4 16 8 41 17 83 26 124z m-70 127c35 0 64 28 65 63 0 36-29 66-65 65-36 0-64-29-64-64 0-36 28-64 64-64z m415-20c35-1 62 26 62 60 1 34-26 62-60 63-35 0-63-27-63-62 0-34 27-61 61-61z" horiz-adv-x="1000" />

<glyph glyph-name="golf" unicode="&#xe835;" d="M612 530c-13 5-38 15-52 14l-121-10-70 83c-11 13-30 14-43 3-13-11-15-30-4-43l80-94c6-7 14-11 23-11 4 0 133 10 143 12-7-2-130-38-138-40-10-3-21-1-30 3l30-37c6-7 15-11 24-11 7 0 11 1 16 4l-27-73c-5-13-26-198-26-198l-39-195c-4-23 13-45 38-45 17 0 33 12 37 30l39 198 12 87 43-90-9-186c-1-21 16-39 38-39 20 0 37 15 38 36l9 195c1 6-1 13-3 18l-48 100 77 209c12 32-4 68-37 80z m-347 32c-10-7-13-20-7-30 4-7 11-11 18-11 4 0 9 2 12 4l27 17-28 34-22-14z m469 209l-63 35c-7 4-16 3-22-1l-263-166 29-34 246 156 52-29c11-5 24-2 30 9 6 11 2 24-9 30z m-78-82c-37 14-79-6-93-43-14-38 5-80 43-94 38-14 80 6 94 44 14 37-6 79-44 93z" horiz-adv-x="1000" />

<glyph glyph-name="artistics-gymnastics" unicode="&#xe836;" d="M500 229l-38-80-7-67c47-13 90 20 96 63 5 38-17 72-51 84z m388-213h-222c0 2 0 4-1 6l-85 302 28 195 74 104 138-17c25-3 46 14 49 38 3 24-14 46-38 49l-164 20c-16 2-31-5-41-18l-82-116-158 25-66 116c-12 21-39 28-60 16-21-11-28-38-16-59l76-135c7-11 18-19 31-21l95-15c-20-126-15-99-35-227l-46-96c-2-4-3-8-3-12l-17-155c-202 0 219 0-233 0-16 0-29-13-29-29 0-16 13-29 29-29 277 0 500 0 776 0 16 0 29 13 29 29 0 16-13 29-29 29z m-470 0l16 141 45 96c32-4 25-3 53-7 37-24 54-65 48-105-2-13-7-26-13-37l24-88c-112 0 117 0-173 0z" horiz-adv-x="1000" />

<glyph glyph-name="climbing" unicode="&#xe837;" d="M950 429l-97 107c-9 10-20 16-33 20l-60 14-72 67-13 112c-2 17-17 29-34 27-17-2-29-17-27-34l14-123c1-8 4-14 10-19l104-97-43-177-113 2c-13 1-26-5-35-15l-110-122c-17-19-16-48 3-65 19-17 48-15 65 3l96 107 78-2-46-65c-7-10-10-23-7-35l29-163c4-22 23-38 45-38 3 0 6 0 8 1 25 4 42 28 37 53l-25 144 84 120c3 5 5 9 6 14 11 44 43 175 43 175l38-41-19-112c-2-16 9-32 26-35 1 0 3 0 5 0 14 0 27 10 30 25l21 126c2 10-1 19-8 26z m-159 155c32-22 76-13 98 19 22 32 13 76-19 98-32 22-76 14-98-19-22-32-13-76 19-98z m-348 84l155 113c3 3 5 8 4 12-2 5-6 8-11 8h-501c-27 0-48-22-48-49v-837c0-7 4-13 11-15 7-2 14 1 17 7l133 239c5 8 8 16 10 24l46 199c4 18 13 34 26 47l82 78c14 13 23 31 27 50l12 66c4 23 17 44 37 58z" horiz-adv-x="1000" />

<glyph glyph-name="judo" unicode="&#xe838;" d="M261 667c37 23 47 72 24 109-23 37-72 47-109 24-37-23-48-72-24-109 23-37 72-48 109-24z m607 31c-14 25-46 33-70 19l-225-131c-5-3-9-6-13-10l-93-104-65 101 60 27c4 2 8 5 12 8l100 94c18 16 19 43 2 61-16 17-43 18-60 2l-96-90-73-33c-21 11-43 10-67-3-16-9-39-20-56-45-24-35-92-142-92-142-12-18-8-41 8-55l90-79c18-15 45-13 61 5 15 18 13 45-5 60l-62 54 35 54 98-153c2-8 57-149 60-156l14-246c2-28 25-50 54-48 29 1 50 26 49 54l-15 254c0 5-1 11-3 16l-44 113 159 176 218 127c25 14 33 45 19 70z" horiz-adv-x="1000" />

<glyph glyph-name="rugby" unicode="&#xe839;" d="M687 537c50-50 120-67 184-53 5 43 5 84 2 121-4 30-11 69-30 88-19 19-58 26-88 30-37 3-78 3-121-2-14-64 3-134 53-184z m-559-442c3-30 10-69 29-88 19-19 59-26 88-30 37-3 78-3 121 2 15 65-3 134-53 184-50 50-119 68-183 53-6-43-6-84-2-121z m699 340c-65 0-126 25-171 71-55 55-80 131-68 207-79-15-202-53-300-151-98-98-136-221-151-300 12 2 24 3 36 3 65 0 126-25 171-71 55-55 80-131 68-207 79 15 202 53 300 151 98 98 136 221 151 300-12-2-24-3-36-3 0 0 0 0 0 0z m-283 58c-10-6-24-3-30 8l-10 19c-15-10-30-20-44-31l14-16c8-9 6-23-3-31-9-8-23-7-31 3l-14 16c-13-12-25-24-37-37l16-14c10-8 11-22 3-31-8-9-21-11-31-3l-16 14c-11-14-21-29-31-44l19-10c11-6 14-20 8-30-6-11-19-15-30-9l-76 44c-11 6-14 19-8 30 6 10 19 14 30 8l19-11c11 17 23 34 35 50l-17 15c-9 7-11 21-3 31 8 9 22 10 31 2l17-14c14 15 28 29 43 43l-14 17c-8 9-7 23 3 31 9 8 23 7 31-3l14-17c16 13 33 24 50 35l-11 19c-6 11-2 24 8 30 11 6 24 3 30-8l44-76c6-11 2-24-9-30z" horiz-adv-x="1000" />

<glyph glyph-name="sailing" unicode="&#xe83a;" d="M189 379c43 12 68 56 57 98-12 43-56 68-99 56-42-11-67-55-56-98 12-42 56-68 98-56z m761-406c-12 12-31 12-43 0-14-14-38-14-52 0-37 37-101 37-138 0-14-14-38-14-52 0-38 38-99 38-137 0-14-14-38-14-52 0-37 37-100 38-139-1-13-13-36-13-50 0-36 36-99 36-135 0-16-16-43-16-59 0-12 12-31 12-42 0-12-12-12-31 0-43 19-20 46-29 72-29 26 0 52 10 72 29 13 14 37 14 50 0 36-36 97-37 136 2 14 13 38 13 52 0 37-37 101-37 137 0 15 14 38 14 53 0 36-37 100-37 137 0 14 13 38 13 52 0 37-37 101-37 138 0 11 11 11 30 0 42z m-769 383c-38-6-59-48-49-85l55-198c6-24 25-44 48-52 24-8 50-4 70 11l117 69 118-67c7-4 14-6 22-6 16 0 31 9 39 23 13 22 5 50-17 62l-41 24 266 35c14 1 25 13 26 26 2 13 32 319-93 585-7 15-25 22-40 15-15-7-22-25-15-40 38-81 61-167 74-247h-251l31 256c2 16-9 31-26 33-17 2-31-9-33-26l-38-311-114-87c0 0-107-14-149-20z m154-201l-22 83 37-7c6-1 13-1 19 2l49 16-7-52c-4-1-8-3-11-5l-65-37z m435 296c11-100 9-184 7-223l-306-40c0 0 32 263 32 263l267 0z m-406-136l68 52-4-34-74-26-7 1h0c6 1 12 3 17 7z" horiz-adv-x="1000" />

<glyph glyph-name="water-polo" unicode="&#xe83b;" d="M123 97c23 22 51 35 82 38l2 102c-6 4-72 71-77 76l86-51c8-5 17-6 26-4l137 32c19 4 31 23 26 42-4 18-23 30-41 26l-125-29-74 43c52-15 41-12 67-19l83 19 74 67c14 13 15 35 2 49-13 14-35 15-49 3l-106-96-72 24c-1 0-19 3-25 3h-28c-38 0-69-30-69-68v-244c26 12 58 8 81-13z m2 345c44 0 80 36 80 80 0 45-36 80-80 80-44 0-80-35-80-80 0-44 36-80 80-80z m460 28c-15-13-17-34-5-49l95-119c3-3 6-6 9-8l63-39c-2-5-3-10-4-16l42 12-74-44-124 29c-19 5-37-7-42-26-4-18 8-37 26-41l138-32c9-2 18-1 26 4l86 51-57-57c41 6 85-5 117-34 8 7 18 12 28 14v117c0 38-31 69-69 69h-28c-3 0-5 0-7 0l-80 49-91 114c-12 15-34 17-49 6z m240-149c45 0 80 36 80 80 0 44-35 80-80 80-44 0-79-36-79-80 0-44 35-80 79-80z m-280 226c45 0 82 36 82 81 0 45-37 82-82 82-45 0-82-37-82-82 0-45 37-81 82-81z m405-483c-12 12-31 12-43 0-14-14-38-14-52 0-37 37-101 37-138 0-13-14-38-14-52 0-36 36-101 36-137 0-15-14-38-14-52 0-37 37-100 38-139-1-13-14-36-13-50 0-36 36-99 36-135 0-16-16-43-16-59 0-12 12-31 12-42 0-12-12-12-31 0-43 19-19 44-30 72-30 27 0 53 11 72 30 13 14 36 14 50 0 36-36 97-37 136 1 14 14 38 14 52 0 38-38 100-38 138 0 13 14 38 14 52 0 36-36 100-36 137 0 14 14 38 14 52 0 37-36 101-36 138 0 11 12 11 31 0 43z" horiz-adv-x="1000" />

<glyph glyph-name="football" unicode="&#xe83c;" d="M509 629c41-23 92-9 115 31 23 41 9 92-31 116-41 23-92 9-115-32-23-40-9-92 31-115z m342-111c-5 25-29 41-54 35l-133-28-99 22c-6 8-14 16-23 21l-35 20c-14 8-31 11-50 6-31-12 79 29-165-62-5-2-10-4-14-8l-149-126c-19-16-22-45-6-65 17-19 46-21 65-5l143 121 30 11c-93-162-50-82-164-305l-140-149c-21-22-20-57 2-78 22-21 57-19 77 3l146 154c4 4 7 8 9 13l67 132 170-106-11-152c-2-32 23-59 55-59 29 0 53 22 55 51l13 185c1 21-9 40-26 51l-147 91 93 163 94-21c7-1 13-1 20 0l142 31c25 5 40 30 35 54z m11-411c-54 0-97-43-97-97 0-53 43-96 97-96 53 0 96 43 96 96 0 54-43 97-96 97z" horiz-adv-x="1000" />

<glyph glyph-name="surfing" unicode="&#xe83d;" d="M527 604c38 6 62 42 56 79-7 37-42 62-79 55-38-6-62-42-56-79 7-37 42-62 79-55z m303-469c-2 22-80 35-192 35l2 177c0 13-5 25-15 34-10 9-23 13-37 11l-78-10 24 129 131 44c7 2 13 7 17 13l61 104c9 14 4 33-11 42-14 8-33 3-42-11l-55-94-91-31-72 11c-4 1-9 1-13 0l-147-19c-5-1-11-4-15-7l-95-78c-12-11-14-30-4-43 6-7 15-11 24-11 7 0 14 2 19 7l88 72 84 12-31-166-85-38c-21-10-31-34-24-56l39-121c-79-14-139-31-163-48 39 12 84 6 117-19 23 17 50 26 78 26 0 0 0 0 0 0 29 0 56-9 78-26 45 33 111 33 156 0 40 30 97 33 140 10 70 16 114 35 112 51z m-283 32c-22-1-45-2-68-4-26-3-51-5-75-8l-32 97 62 27 114 16-1-128z m402-138c-11 12-31 12-43 0-9-10-25-10-34 0-33 32-89 32-121 0-9-9-26-9-35 0-32 32-88 32-121 0-9-9-25-9-35 0-32 32-88 32-121 0-9-9-24-9-34-1l0 1c-16 16-38 25-61 25 0 0 0 0 0 0-23 0-44-9-60-25-9-9-25-9-35 0-32 32-89 32-121 0-9-10-25-10-34 0-12 12-32 12-44 0-11-12-11-31 1-43 33-34 87-33 120 0 10 9 26 9 35 0 32-33 89-33 121 0 5 4 11 7 17 7 0 0 0 0 0 0 7 0 13-2 17-7l1 0c16-16 38-25 60-25 23 0 44 9 61 25 9 9 25 9 34 0 32-32 89-32 121 0 10 9 26 9 35 0 32-33 89-33 121 0 9 9 25 9 35 0 33-34 87-34 120 0 12 12 12 31 0 43z" horiz-adv-x="1000" />

<glyph glyph-name="rowing" unicode="&#xe83e;" d="M281 419c45 0 80 36 80 80 0 45-35 80-80 80-44 0-80-35-80-80 0-44 36-80 80-80z m671-453c-12 11-31 11-43 0-14-14-39-14-53 0-28 28-74 34-110 18-13 24-38 39-65 39l-89 257c8 6 13 15 14 26 1 21-14 39-35 40l-1 1-17 47c9 8 14 19 11 32-3 15-16 26-31 27l-42 124c9 7 17 16 23 27 9 18 10 39 3 58l-45 131c-4 12-17 18-29 14l-100-34c-11-4-18-17-14-29l45-131c11-32 41-52 74-51l40-116-231-48c-33-5-60-33-60-68v-207c0-25 13-49 34-63 21-14 47-17 70-8l149 60 110-82c8-6 18-9 27-9 14 0 28 6 37 18 1 1 1 2 2 3l11-33c-7-5-13-11-18-18-32 8-66-1-91-25-14-14-39-14-52 0-37 37-100 38-140-2-13-13-36-13-50 0l-2 3c-36 34-98 33-133-3-17-16-43-16-60 0-12 12-31 12-43 0-11-11-11-31 0-42 20-20 47-30 73-30 26 0 52 10 72 30 14 13 37 13 50 0l3-3c36-34 97-34 134 4 14 14 39 14 53 0 36-37 101-37 138 0 14 14 38 14 52 0 37-37 101-37 138 0 14 14 39 14 53 0 36-37 101-37 138 0 11 12 11 31 0 43z m-432 385l-106 8 96 20 10-28z m-36-151c-12 9-29 12-43 6l-78-31 1 112 183-15 55-160-118 88z" horiz-adv-x="1000" />

<glyph glyph-name="canoe" unicode="&#xe83f;" d="M132 532c44 0 79 36 79 80 0 45-35 80-79 80-45 0-80-35-80-80 0-44 35-80 80-80z m180-328l77-61c20-15 48-12 63 8 16 19 12 48-7 63l-96 75-37-85z m303 328c44 0 80 36 80 80 0 45-36 80-80 80-44 0-80-35-80-80 0-44 36-80 80-80z m180-328l78-61c19-15 48-12 63 8 16 19 12 48-8 63l-95 75-38-85z m155-123c-12 12-31 12-43 0-14-14-38-14-52 0-28 28-71 35-106 21-12-5-23-11-32-20l160 361 1 0c21 3 35 22 33 43-3 20-22 35-43 32l-33-4-157-22c-13 13-30 20-49 20h-28c-38 0-69-30-69-68v-206c0-25 13-49 33-63 21-14 47-17 71-8l53 22 1 0 51 114-44-16 1 132c118 16 92 13 127 17l-151-336-8-19c0 0-1 0-1 0-38 38-99 38-137 0-14-13-38-13-52 0-37 37-100 38-139-1-13-13-36-13-50 0-7 7-13 12-25 17-6 4-13 6-21 8l152 338 2 0c20 3 35 22 32 43-3 20-22 35-42 32l-34-4-157-22c-13 13-30 20-49 20h-28c-38 0-69-30-69-68v-206c0-25 12-49 33-63 21-14 47-17 71-8l54 22 0 0 51 114-44-16 1 132c118 16 93 13 127 17l-150-333c-1-1-1-1-2-1-14-4-26-11-37-22-16-16-43-16-59 0-12 12-31 12-42 0-12-12-12-31 0-42 19-20 46-30 72-30 26 0 52 10 72 30 12 12 34 15 52-3 36-34 96-34 134 4 14 14 38 14 52 0 37-37 101-37 137 0 15 14 38 14 53 0 36-37 100-37 137 0 14 14 38 14 52 0 37-37 101-37 138 0 11 12 11 31 0 42z" horiz-adv-x="1000" />

<glyph glyph-name="trampoline" unicode="&#xe840;" d="M528 490c-3-5-7-9-11-13-32-32-85-32-118 0l-147 147c-32 33-32 86 0 118 16 17 38 25 59 25h251l-55-84h-78l77-76 25 38 69 103c8 12 21 19 34 19 9 0 17-3 24-7 19-13 24-39 11-58l-40-60-101-152z m264 235c0-23-19-42-42-42h-43c15 27 14 59 0 84h43c23 0 42-19 42-42z" horiz-adv-x="1000" />

<glyph glyph-name="archery" unicode="&#xe841;" d="M419 578c44 0 79 35 79 79 0 44-35 79-79 79-44 0-79-35-79-79 0-44 35-79 79-79z m266 218c-6 11-20 16-32 10-11-6-16-20-10-32 1-2 2-5 4-8-5-2-177-203-180-207 13 3 26 1 37-5 12-6 21-15 27-28 5-11 5-23 3-34h167c-3-60-17-120-41-177l-135 157c-10-14-24-22-41-24l-142-13 137 35c18 4 28 22 24 40-5 18-23 29-41 24l-137-34c104 44 69 29 132 56 3 1 6 2 9 3h-11c-7 2-14 3-22 3h-29c-16 0-31-6-43-15-9-6-94-62-101-69-9-9-12-23-9-32 3-13 16-25 32-25 0 0 0 0 0 0 0 0 0 0 0 0 7 0 46 11 53 13 0-221 0-440 0-502 0-22 18-41 41-41 23 0 41 19 41 41v275h30v-275c0-12-3-24-9-34 7-4 14-7 22-7 23 0 41 19 41 41 0 339 0 518 0 519 3-4 140-164 145-167-2-2-3-5-4-8-6-11-1-26 10-32 4-1 7-2 11-2 9 0 17 5 21 13 87 169 87 371 0 541z m-177-237l152 177c24-57 38-117 41-177h-193z" horiz-adv-x="1000" />

<glyph glyph-name="boxing" unicode="&#xe842;" d="M249 618c38-8 76 16 84 54 8 38-16 76-54 84-38 8-75-16-84-54-8-38 16-76 54-84z m209-21l-80-81 4 2c31 16 67 7 87-19l43 44c15 15 15 39 0 54-15 15-39 15-54 0z m-62-106l-93-48-12 56 11-22 69 35c0 0-35 34-47 45-6 7-20 17-33 21-28 8-47 13-71-3-14-9-23-22-27-38l-73-375-74-154c-11-22-1-50 22-61 22-11 50-1 61 22l77 159c2 4 3 9 4 13l17 115 86-80 25-193c3-26 27-43 51-40 25 3 43 26 40 51l-27 210c-1 10-6 20-14 27-2 3-91 85-93 87-33-17-66-2-79 24-12 23-5 45 0 140l23-104c4-18 20-30 38-30 14 0 141 68 155 76 18 9 26 32 16 51-10 19-33 26-52 16z m558-483l-74 154-73 375c-3 16-13 29-26 38-14 9-30 12-46 8-8-1-20-4-28-6l-76-1-32 106c-6 20-27 31-47 25-20-6-32-27-26-47l40-134c5-16 20-27 37-27 0 0 0 0 1 0l60 1 2-10 28-2 9 13 7 9-15-53-106 8c-21 2-39-14-41-35-2-21 14-40 35-41 0 0 139-10 140-10 17 0 32 11 37 27l23 83 7-91c1-27-19-49-45-51-2 0-48 3-48 3l7-33-92-86c-8-7-13-17-14-27l-27-210c-3-27 18-51 46-51 22 0 42 17 45 40l25 193 86 80 17-115c1-4 2-9 4-13l77-159c11-23 39-33 62-22 22 11 32 39 21 61z m-203 610c38 8 62 46 54 84-8 38-46 62-84 54-38-8-62-46-54-84 8-38 46-62 84-54z" horiz-adv-x="1000" />

<glyph glyph-name="equestrian" unicode="&#xe843;" d="M81 268c-18 0-32-15-32-33 0-17 14-32 32-32h210l-58 65h-152z m869-33l-28 149c-10 51-46 90-92 106l-41 81c-6 12-18 19-32 17-13-1-24-11-28-24l-23-91c-31-21-41-42-59-74 23-9 39-29 44-52 25 44 39 82 87 86 39 3 73-23 81-61l28-149c1-4-2-8-6-9-3-1-6 0-8 3l-57 70c-11 14-31 16-45 5-14-11-16-31-5-45 54-66 74-108 129-96 38 9 62 46 55 84z m-350 28l-28 8-2-3h-78l21-24c11-12 18-26 22-41h53c12 0 22 6 28 16l26 45c-13-4-28-5-42-1z m-2 335c29 29 30 75 1 105-28 29-75 30-105 1-29-29-30-75-1-105 29-29 75-30 105-1z m33-227l-107 31-31 100 18-30c9 23 5 50-13 68l-19 20c-12 12-28 19-45 19-17 0-33-6-45-18l-130-126c-34-33-36-89-1-125 31-32 6-5 131-143l-36-131c-7-26 8-52 34-59 25-7 52 8 59 34l42 156c5 16 0 33-10 45l-106 117c41 40 31 30 50 48l-5 101 37-121c4-13 14-23 27-26l128-37c4-1 7-2 11-2 18 0 34 12 39 29 6 22-7 44-28 50z" horiz-adv-x="1000" />

<glyph glyph-name="rhytmic-gymnastics" unicode="&#xe844;" d="M671 650c-21 15-50 10-65-10l-21-30c14-24 33-50 58-77l38 52c15 21 11 50-10 65z m-116-213c-22 23-42 48-60 73l-75-38c-17-9-33-20-47-33l-134-124-126-23c-25-5-42-29-37-54 4-22 23-38 45-38 3 0 6 0 9 1l139 25c8 2 17 6 23 12l67 62 104-121-62-54-173 48c-30 8-61-9-69-39-8-29 9-60 39-68l203-56c4-2 9-2 14-2 14 0 27 4 37 14l163 143 79-9 31-217c4-27 27-47 55-47 2 0 5 0 8 0 30 5 51 33 47 63l-37 260c-4 25-24 45-49 47l-149 17-107 125 63 32c0 1-1 1-1 1z m-209 29c34 29 38 80 9 114-29 34-80 38-114 8-34-29-38-80-9-114 29-34 81-38 114-8z m236-3c83-88 179-143 249-143 27 0 50 8 67 24 31 30 36 82 12 146-20 57-61 119-115 175-83 89-179 143-249 143-27 0-50-8-66-24-61-57-17-196 102-321z m-64 281c6 6 15 9 28 9 45 0 127-39 209-126 48-51 85-106 103-156 15-41 16-73 1-87-27-26-132 6-237 117-106 112-132 217-104 243z" horiz-adv-x="1000" />

<glyph glyph-name="diving" unicode="&#xe845;" d="M700 752v-77h50c17 0 34-3 50-8v85c0 14-11 25-25 25h-50c-14 0-25-11-25-25z m175-352v100c0 72-59 125-125 125h-500c-69 0-125-56-125-125v-100c0-69 56-125 125-125h100c69 0 125 56 125 125 0 14 11 25 25 25 14 0 25-11 25-25 0-34 13-65 37-88 23-24 54-37 88-37h100c22 0 44 6 63 17 39 23 62 63 62 108z m-275-225c14 0 25 11 25 25 0 14-11 25-25 25-7 0-205 0-200 0-14 0-25-11-25-25 0-14 11-25 25-25h50v-77c0-47 18-90 52-123 37-38 89-57 143-51 90 10 155 92 155 182v119h-100v-127c0-41-34-75-75-75-41 0-75 34-75 75v77h50z" horiz-adv-x="1000" />

<glyph glyph-name="tennis" unicode="&#xe846;" d="M530 562c35 12 53 51 40 86-13 34-51 52-86 39-35-12-53-51-40-86 13-34 51-52 86-39z m305 49c-12 17-36 22-53 10l-99-65-118-14c-5 0-21-5-24-7l-23-8c-6-2-14-7-24-16l-85-78-70 57c-2 2-5 3-7 4l-39 119c25 23 34 68 20 114-19 57-67 92-107 79-40-14-58-70-40-127 15-45 49-77 83-80l37-113c0 0-1-1-1-1-13-16-11-40 5-54l19-16 6-18c3-10 12-16 22-16 2 0 5 1 7 1 1 1 2 2 3 2l39-32c14-12 36-11 50 2l63 57 49-133-19-160-74-161c-10-23 0-51 23-61 23-11 50-1 61 23l77 168c2 4 3 9 4 13l14 122 57-87 0-196c0-25 21-46 46-46 0 0 0 0 0 0 26 0 46 21 46 46l0 210c0 9-2 18-7 26l-92 138-58 159 74 8c6 1 12 3 17 7l107 70c18 12 22 36 11 54z" horiz-adv-x="1000" />

<glyph glyph-name="handball" unicode="&#xe847;" d="M450 422c8 1 15 2 22 5 41 14 61 59 47 100-15 40-60 61-101 46-21-8-36-24-44-43l14-55 62-53z m309-447c-15 22-79 119-94 141 0 0-75 187-82 208l53 8c13 2 24 9 31 20l80 124c13 20 7 48-13 61-21 14-49 8-62-13l-69-107-149-33-90 76-44 166c-6 24-31 38-54 32-24-6-38-31-32-55l48-180c2-8 7-16 14-22l123-105c30-81 17-47 71-194l-44-73-71 59c-22 19-56 16-75-7-19-22-16-56 7-75l119-100c12-10 28-14 43-12 16 3 29 12 37 26l84 141 54 19-92-153 150-34c21-5 43 3 56 22 13 18 13 42 1 60z m-240 682c40 15 61 60 46 100-15 41-60 61-100 47-41-15-61-60-47-101 15-40 60-61 101-46z" horiz-adv-x="1000" />

<glyph glyph-name="volleyball" unicode="&#xe848;" d="M677 523c28 27 29 72 3 100-27 28-72 29-100 2-28-27-30-72-3-100 27-28 72-29 100-2z m262 81c-27 28-72 29-100 2-28-27-29-71-2-100 27-28 71-29 100-2 28 27 29 72 2 100z m-133-184h-153l-98 48 44-11 48-12h159c4 0 8-1 11-1 2 4 3 9 2 15-3 18-20 30-38 28l-131-19-59 9c-2 3-5 7-8 10l-18 19c-11 11-26 18-42 18-16 1-32-5-43-16l-158-151-87-123-173-101c-19-11-26-37-15-57 12-20 38-26 57-15l181 105c5 3 10 7 13 12l57 79 109-23-59-118c-10-21-2-46 19-56 21-10 46-2 56 19l83 166c12 24-2 54-28 59l-45 10 70 67-35 27 105-51c5-3 10-4 15-4h161c19 0 33 15 33 33 0 19-14 34-33 34z" horiz-adv-x="1000" />

<glyph glyph-name="hockey" unicode="&#xe849;" d="M759 325l-23 19 31-62c8 14 5 32-8 43z m-172 280c36-27 87-20 114 16 28 36 21 87-15 114-36 28-88 21-115-15-27-36-20-88 16-115z m371-610c-4 18-22 29-40 25l-16-4c-21-4-43 6-53 26l-99 200c-12-21-34-33-57-33l98-197c19-39 58-62 101-62 15 0 25 3 41 6 17 4 29 21 25 39z m-323 405c-8-4-13-10-16-18l81-39-21 42c-8 16-28 23-44 15z m89-141c8 17 1 38-16 46l-143 69-3 175c20-114 14-80 26-152l1-1c6 14 17 26 31 33 6 3 12 5 17 6-27 108-24 124-51 145l-24 18c-31 23-75 17-99-14l-150-197c-2-4-4-8-6-12 0 0 0 0 0 0l0-1-107-217-141-123c-21-18-23-49-5-69 18-21 49-23 69-5l149 130c5 4 9 9 12 15l86 175 105-91-50-179c-7-26 8-53 34-60 27-8 54 8 61 34l58 208c5 19-1 38-15 51-59 50-43 37-95 82-3 8-4 17-3 26l29 197 2-197c0-13 8-25 20-30l162-78c17-8 38-1 46 16z" horiz-adv-x="1000" />

<glyph glyph-name="athletics" unicode="&#xe84a;" d="M665 474c6 1 12 3 17 6l105 71c18 11 22 35 11 52-12 18-35 22-53 11l-98-65c-13-2-119-12-130-18-14-2-42-12-56-26l-85-78-33 28 99 71c-15 5-29 15-40 27l-96-69c-16 13-39 11-52-5-9-11-10-24-6-36l-43-31c-10-7-12-21-5-32 7-10 22-12 32-5l47 34 74-61c15-13 37-12 50 1l62 57 49-131-19-159-73-160c-10-23 0-50 23-60 23-11 50-1 60 22l76 167c2 4 4 9 4 13l14 121 57-86 0-194c0-25 20-46 45-46 0 0 0 0 0 0 25 0 46 20 46 46l0 208c0 9-2 17-7 25l-91 137-58 157 74 8z m-95 143l210 150c10 7 12 22 5 32-7 10-22 12-32 5l-195-140c2-4 4-9 6-14 4-10 6-22 6-33z m-74-62c35 12 52 51 40 85-13 34-51 52-85 39-35-12-52-50-40-85 13-34 51-52 85-39z" horiz-adv-x="1000" />

<glyph glyph-name="pin-pong" unicode="&#xe84b;" d="M286 419c9-58-11-116-52-158l-152-152c-32-32-32-83 0-115 32-32 84-32 115 0l152 152c42 41 100 61 158 52 27-4 54-4 82 0l-303 303c-4-28-4-55 0-82z m534 313c-112 112-305 99-433-28-29-29-51-61-68-95l378-378c34 17 66 39 95 68 127 128 140 321 28 433z m20-636c-57 0-103-45-103-102 0-57 46-102 103-102 56 0 102 45 102 102 0 57-46 102-102 102z" horiz-adv-x="1000" />

<glyph glyph-name="wrestling" unicode="&#xe84c;" d="M957 42l-74 162c0 0 31 136 31 138 0 11-4 22-12 31l-146 151c4-7 7-15 9-23 4-19 0-38-10-54l22-91c6-25-9-52-34-61-21-7-7-2-88-30-14-8-23-23-24-39l-9-202c-1-26 19-48 45-49 0 0 1 0 2 0 25 0 46 20 47 45l8 174 68 36-5-20c-2-10-1-21 3-31l81-176c11-24 39-35 63-24 23 11 34 39 23 63z m-290 366l0-23-146-50c-21-7-31-29-24-50 5-16 20-26 37-26 4 0 8 0 12 2l173 59c15 5 26 20 26 37l1 79c-9-9-21-16-35-19l-44-9z m-227 182c33-19 73-10 94 19 3-13 9-26 19-37 28-29 74-29 103-1 29 27 29 73 1 102-27 29-73 30-102 2-3-3-5-6-8-9-3 20-15 39-35 50-35 19-79 7-99-28-19-34-7-79 27-98z m91-369c0 0-126 78-127 79l45 78 18-28c3-3 7-6 10-9 9 11 20 19 34 24l71 24-3 0c-8-2-15-1-21 2l-81 36-63 28 151-34c5-1 11-1 17 0l122 27c21 4 35 25 30 46-4 22-25 35-46 31l-114-25-142 32 45-1c-2 2-5 5-9 6l-23 14c-14 8-31 10-47 6-16-5-30-15-38-30l-188-345-120-127c-18-19-17-49 2-67 19-18 48-17 66 2l126 132c3 4 6 8 8 12l55 114c1 0 1-1 1-1l149-92 2-134c1-25 22-46 47-46 1 0 1 0 1 0 26 0 47 22 46 48l-2 159c0 16-9 31-22 39z" horiz-adv-x="1000" />

<glyph glyph-name="shooting" unicode="&#xe84d;" d="M432 421c-25-21-60-22-86-2-22 17-30 43-25 68l-62-5 148 37c20 5 31 25 27 44-5 20-25 31-44 27l-149-38 67 29c-7 8-13 18-16 30l-117-78c-14-9-21-30-11-48 8-14 24-21 40-17l48 12c0-39 0-242 0-544 0-24 20-44 45-44 25 0 45 20 45 44v298h32v-298c0-13-3-26-9-37 6-4 14-7 23-7 25 0 45 20 45 44 0 236-1 461-1 485z m-137 230c10 26 35 45 64 45h65c2 8 4 17 4 26 0 48-38 86-86 86-47 0-86-38-86-86 0-30 16-56 39-71z m174-184c1 0 1 0 1 0 7 0 13 1 19 5l127 77c4 2 7 5 10 9h-87l-70-91z m355 177c-52 0-94 0-148 0-6 10-16 17-29 17-182 0-16 0-127 0 0 103 0-68 0 45 0 10-7 18-17 18-9 0-17-8-17-18 0-37 0 23 0-45-58 0-72 0-127 0-19 0-34-15-34-34 0-14 8-25 19-31l40 17c32 14 67-3 80-32 16-38-9-81-51-85l-54-5c-9-15-6-34 8-45 15-11 37-8 48 7l107 139c158 0-64 0 125 0 13 0 23 7 29 17 53 0 97 0 148 0 9 0 17 8 17 18 0 9-8 17-17 17z" horiz-adv-x="1000" />

<glyph glyph-name="artistics-swimming" unicode="&#xe84e;" d="M276 474c43 0 78 38 78 85 0 47-35 85-78 85-43 0-78-38-78-85 0-47 35-85 78-85z m-159-56l77-38c0 0 0 0 0-1v-168c42 10 88 0 122-32 12 11 25 19 39 26l1 90 9-10c5-6 12-10 20-11l120-21c19-3 37 11 40 32 3 20-10 40-29 43l-108 19c-67 78-12 14-79 93-6 6-14 13-39 13h-28c-11 0-21-3-30-8l-73 36-50 136c-7 19-27 29-45 21-18-8-27-30-20-50l55-150c4-9 10-16 18-20z m572 56c43 0 78 38 78 85 0 47-35 85-78 85-43 0-78-38-78-85 0-47 35-85 78-85z m-177-35c4-10 10-17 18-21l77-38c0 0 0 0 0-1v-165c29-2 58-14 80-35 23 21 52 33 81 35l1 81 9-10c5-6 12-10 20-11 4-1 121-21 125-21 17 0 32 13 35 32 3 20-10 40-29 43l-108 19c-181 213 104-122-79 93-6 7-14 13-39 13h-28c-11 0-21-3-30-8l-73 36-50 136c-7 19-27 29-45 21-18-8-27-30-20-50l55-149z m386-303c-14-15-36-15-50 0-36 40-100 40-136 0-13-14-36-14-50 0-36 39-99 39-135 0l-1 0c-14-15-36-14-49 0-37 40-97 43-137-1-13-13-35-14-48 0-36 40-96 40-133 0-15-16-42-16-57 0-12 13-31 13-43 0-12-13-12-34 0-47 19-20 45-32 72-32 27 0 52 12 71 32 13 15 34 15 47 0 36-38 97-40 135 2 14 15 36 14 50-1 36-39 97-41 136 0l0 1c13 14 36 14 49 0 37-40 100-40 136 0 14 14 37 14 50 0 37-41 98-41 136 0 12 13 12 33 0 46-12 13-31 13-43 0z" horiz-adv-x="1000" />

<glyph glyph-name="basketball" unicode="&#xe84f;" d="M231 546c42 0 76 34 76 75 0 42-34 76-76 76-41 0-75-34-75-76 0-41 34-75 75-75z m262 98c-13 12-33 12-45 0l-111-111-92-2h-27c-31 0-57-21-64-50l-55-38c-8-5-13-12-14-21l-20-131c-3-17 9-33 26-36 18-3 34 10 37 27l18 117 7 4c0-89-1-199-1-288l-72-169c-8-20 1-43 21-51 20-9 43 1 52 21l33 78c3-8 7-15 14-20 17-13 42-9 55 8l103 140c9 13 10 30 2 44l-50 85c0 289 0 200 0 217l43 2c8 1 15 4 21 10l119 119c12 12 12 33 0 45z m-279-584l10 23c5 11 7 22 7 33v76h23l25-44-65-88z m370 748c-41 0-74-33-74-73 0-41 33-74 74-74 41 0 74 33 74 74 0 40-33 73-74 73z m346-131c-4 4-11 7-17 7h-207c-6 0-12-3-17-7-4-5-6-12-5-18l30-226c2-11 11-19 23-19h146c11 0 21 8 22 19l30 226c1 6-1 13-5 18z m-67-218h-106l-25 180h155l-24-180z" horiz-adv-x="1000" />

<glyph glyph-name="fencing" unicode="&#xe850;" d="M426 579c33-19 76-7 95 26 19 34 7 76-26 95-34 19-76 7-95-26-19-33-7-76 26-95z m531 83c-3 5-10 7-15 4l-247-150-15 21c-5 7-15 9-21 4-7-5-9-14-4-21l7-9-109-24-77 18c-5 10-13 18-23 24l-22 13c-17 10-38 10-52 4l-130-52c-3-1-6-3-9-5l-123-104c-13-11-15-31-3-45 6-7 15-11 24-11 7 0 14 3 20 8l119 100 32 13c0 0-133-248-140-261l-115-122c-17-18-16-46 2-64 18-17 47-16 64 2l120 127c3 3 5 7 7 11l54 109c22-14-59 37 143-89l2-128c0-24 20-44 45-44 0 0 1 0 1 0 25 0 45 21 44 46l-2 152c-1 15-9 29-22 38l-120 75 79 139 75-17c5-1 9-1 14 0l64 14c9-12 26-14 38-5l36 27 16-22c5-7 14-9 21-4 7 5 8 14 3 21l-16 22 232 171c4 3 6 10 3 14z" horiz-adv-x="1000" />

<glyph glyph-name="weightlifting" unicode="&#xe851;" d="M500 498c44 0 80 36 80 80 0 44-36 80-80 80-44 0-80-36-80-80 0-44 36-80 80-80z m383 260c-11 0-21-6-27-14v11c0 18-15 34-34 34-18 0-33-16-33-34v-50h-578v50c0 18-15 34-33 34-19 0-34-16-34-34v-11c-6 8-16 14-27 14-18 0-34-15-34-33v-84c0-18 16-33 34-33 11 0 21 5 27 14v-11c0-19 15-34 34-34 18 0 33 15 33 34v50h22c0-3 67-134 67-134 1-3 4-7 7-9l96-90v-238l-78-75c-8-8-12-18-12-29v-135c0-22 17-40 39-40 22 0 40 18 40 40v118l57 55h102l57-55v-118c0-22 18-40 40-40 22 0 39 18 39 40v135c0 11-4 21-12 29l-78 75v238l97 90c2 2 5 6 7 9 0 0 66 131 66 134h22v-50c0-19 15-34 33-34 19 0 34 15 34 34v11c6-9 16-14 27-14 19 0 34 15 34 33v84c0 18-15 33-34 33z m-240-195l-86-80h-114l-86 80-51 98h388l-51-98z" horiz-adv-x="1000" />

<glyph glyph-name="skateboarding" unicode="&#xe852;" d="M611 824c-46 0-83-37-83-83 0-46 37-84 83-84 46 0 83 38 83 84 0 46-37 83-83 83z m298-734c-11 11-29 11-40 0l-39-39c-5-5-12-8-20-8h-171v166c0 19-9 36-25 47l-126 83 90 181c19 38-11 82-50 82h-167c-11 0-21-3-31-9l-166-113c-26-17-33-52-16-77 17-26 52-33 77-16l153 102h60l-71-142c-12-25-4-57 19-73l142-94v-137h-139c-15 0-28-13-28-28 0-16 13-28 28-28h33c-3-9-5-18-5-28 0-46 37-83 83-83 46 0 83 37 83 83 0 10-2 19-5 28h122c-3-9-5-18-5-28 0-46 37-83 83-83 46 0 83 37 83 83 0 14-4 27-10 39 7 4 13 8 18 14l40 39c10 11 10 28 0 39z m-409-159c-15 0-28 13-28 28 0 16 13 28 28 28 15 0 28-12 28-28 0-15-13-28-28-28z m278 0c-15 0-28 13-28 28 0 16 13 28 28 28 15 0 28-12 28-28 0-15-13-28-28-28z m-423 297c-13 8-23 19-31 32l-53-106h-132c-31 0-56-25-56-56 0-30 25-55 56-55h167c21 0 40 11 49 30l58 116-58 39z m340 261h-71l-55-111h126c30 0 55 25 55 55 0 31-25 56-55 56z" horiz-adv-x="1000" />

<glyph glyph-name="swimming" unicode="&#xe853;" d="M750 442c30 28 31 76 2 106-29 30-76 31-106 3-30-29-31-77-3-107 29-30 76-31 107-2z m-404-49l108 53 54-21-178-170 1-1c54 33 123 28 171-14 21 19 48 30 76 33l54 52 30-40c6-8 15-12 25-12 3 0 149 16 153 17 17 2 29 17 27 35-2 17-17 30-35 28l-131-15-54 72c-6 8-5 6-10 13l-18 18c-3 4-16 15-22 17l-133 52c-8 3-17 3-25-1l-121-60c-15-7-22-26-14-42 8-16 26-22 42-14z m604-191c-12 12-31 12-43 0-14-14-38-14-52 0-37 37-101 37-138 0-14-14-38-14-52 0-36 37-100 37-137 0l-1 0c-14-14-37-14-51 0-38 38-100 38-139-1-13-13-36-13-50 0-36 36-99 36-135 0-16-16-43-16-59 0-12 12-31 12-42 0-12-12-12-31 0-42 19-20 44-30 72-30 27 0 53 10 72 30 13 13 36 13 50 0 36-36 98-37 136 1 14 14 38 14 52 0 38-38 100-38 137 0l1 0c14 14 38 13 52 0 36-37 100-37 137 0 14 14 38 14 52 0 37-37 101-37 138 0 11 12 11 31 0 42z" horiz-adv-x="1000" />

<glyph glyph-name="down-open" unicode="&#xf004;" d="M0 533q0 25 18 43t44 18 42-18l305-303 304 303q18 18 43 18t43-18q18-18 18-43t-18-43l-390-391-391 391q-18 19-18 43z" horiz-adv-x="817.4" />

<glyph glyph-name="left-open-1" unicode="&#xf007;" d="M0 353l391 391q18 18 43 18 24 0 43-18 18-18 18-44t-18-43l-304-304 304-305q18-17 18-43t-18-43q-18-18-43-18t-43 18z" horiz-adv-x="495.1" />

<glyph glyph-name="info-circled" unicode="&#xf085;" d="M0 350q0 95 37 182t100 149 149 100 183 37q95 0 182-37t149-100 100-149 37-182q0-95-37-182t-100-150-149-100-182-37q-96 0-183 37t-149 100-100 150-37 182z m398 170q0-29 20-46t51-17q32 0 51 17t19 46-19 45-51 17q-32 0-51-17t-20-45z m5-402h132v299h-132v-299z" horiz-adv-x="937.5" />

<glyph glyph-name="share" unicode="&#xf1e0;" d="M679 279q74 0 126-53t52-126-52-126-126-53-127 53-52 126q0 7 1 19l-201 100q-51-48-121-48-75 0-127 53t-52 126 52 126 127 53q70 0 121-48l201 100q-1 12-1 19 0 74 52 126t127 53 126-53 52-126-52-126-126-53q-71 0-122 48l-201-100q1-12 1-19t-1-19l201-100q51 48 122 48z" horiz-adv-x="857.1" />
</font>
</defs>
</svg>
