<svg width="21" height="23" viewBox="0 0 21 23" fill="none" xmlns="http://www.w3.org/2000/svg">
<path d="M7 11.75C7.6 8.6 8.425 7.775 11.575 7.175C11.95 7.1 12.175 6.8 12.175 6.425C12.175 6.05 11.95 5.75 11.575 5.675C8.425 5.075 7.6 4.25 7 1.1C6.925 0.725 6.625 0.5 6.25 0.5C5.875 0.5 5.575 0.725 5.5 1.1C4.9 4.25 4.075 5.075 0.924997 5.675C0.624997 5.75 0.324997 6.05 0.324997 6.425C0.324997 6.8 0.549997 7.1 0.924997 7.175C4.075 7.775 4.9 8.6 5.5 11.75C5.575 12.125 5.875 12.35 6.25 12.35C6.625 12.35 6.925 12.05 7 11.75Z" fill="black"/>
<path d="M14.5 17C12.4 16.55 11.95 16.1 11.5 14C11.425 13.625 11.125 13.4 10.75 13.4C10.375 13.4 10.075 13.625 9.99999 14C9.54999 16.1 9.09999 16.55 6.99999 17C6.62499 17.075 6.39999 17.375 6.39999 17.75C6.39999 18.125 6.62499 18.425 6.99999 18.5C9.09999 18.95 9.54999 19.4 9.99999 21.5C10.075 21.875 10.375 22.1 10.75 22.1C11.125 22.1 11.425 21.875 11.5 21.5C11.95 19.4 12.4 18.95 14.5 18.5C14.875 18.425 15.1 18.125 15.1 17.75C15.1 17.375 14.8 17.075 14.5 17Z" fill="black"/>
<path d="M19.9 9.5C18.25 9.2 17.875 8.825 17.575 7.175C17.5 6.8 17.2 6.575 16.825 6.575C16.45 6.575 16.15 6.8 16.075 7.175C15.775 8.825 15.4 9.2 13.75 9.5C13.375 9.575 13.15 9.875 13.15 10.25C13.15 10.625 13.375 10.925 13.75 11C15.4 11.3 15.775 11.675 16.075 13.325C16.15 13.7 16.45 13.925 16.825 13.925C17.2 13.925 17.5 13.7 17.575 13.325C17.875 11.675 18.25 11.3 19.9 11C20.275 10.925 20.5 10.625 20.5 10.25C20.5 9.875 20.275 9.575 19.9 9.5Z" fill="black"/>
<path d="M2.275 15.725C2.05 15.5 1.75 15.425 1.45 15.575C1.375 15.575 1.3 15.65 1.225 15.725C1.15 15.8 1.075 15.875 1.075 15.95C1 16.025 1 16.175 1 16.25C1 16.325 1 16.475 1.075 16.55C1.15 16.625 1.15 16.7 1.225 16.775C1.3 16.85 1.375 16.925 1.45 16.925C1.525 17 1.675 17 1.75 17C1.825 17 1.975 17 2.05 16.925C2.125 16.85 2.2 16.85 2.275 16.775C2.35 16.7 2.425 16.625 2.425 16.55C2.5 16.475 2.5 16.325 2.5 16.25C2.5 16.175 2.5 16.025 2.425 15.95C2.425 15.875 2.35 15.8 2.275 15.725Z" fill="black"/>
<path d="M19 4.25C19.225 4.25 19.375 4.175 19.525 4.025C19.675 3.875 19.75 3.725 19.75 3.5C19.75 3.275 19.675 3.125 19.525 2.975C19.45 2.9 19.375 2.825 19.3 2.825C19.15 2.75 18.925 2.75 18.7 2.825C18.625 2.825 18.55 2.9 18.475 2.975C18.325 3.125 18.25 3.275 18.25 3.5C18.25 3.725 18.325 3.875 18.475 4.025C18.625 4.175 18.775 4.25 19 4.25Z" fill="black"/>
</svg>
