<svg width="20" height="20" viewBox="0 0 20 20" fill="none" xmlns="http://www.w3.org/2000/svg">
<path d="M6.875 17.5H6.04167C6.04167 17.8215 6.22658 18.1143 6.51686 18.2524C6.80713 18.3906 7.15099 18.3495 7.40049 18.1468L6.875 17.5ZM6.875 2.5L7.40049 1.85324C7.15099 1.65052 6.80713 1.60939 6.51686 1.74755C6.22658 1.88571 6.04167 2.17852 6.04167 2.5H6.875ZM11.875 6.5625L12.3481 7.24851C12.5642 7.09952 12.6974 6.85746 12.7077 6.59523C12.718 6.333 12.6042 6.08123 12.4005 5.91574L11.875 6.5625ZM11.875 13.4375L12.4005 14.0843C12.6042 13.9188 12.718 13.667 12.7077 13.4048C12.6974 13.1425 12.5642 12.9005 12.3481 12.7515L11.875 13.4375ZM2.97311 6.28597C2.59424 6.02468 2.07528 6.12 1.81399 6.49887C1.5527 6.87774 1.64802 7.3967 2.02689 7.65799L2.97311 6.28597ZM2.02689 12.342C1.64802 12.6033 1.5527 13.1223 1.81399 13.5011C2.07528 13.88 2.59424 13.9753 2.97311 13.714L2.02689 12.342ZM14.1292 7.63379C13.7193 7.42437 13.2173 7.58684 13.0079 7.99667C12.7985 8.40651 12.961 8.90851 13.3708 9.11792L14.1292 7.63379ZM13.3708 10.8821C12.961 11.0915 12.7985 11.5935 13.0079 12.0034C13.2173 12.4132 13.7193 12.5757 14.1292 12.3662L13.3708 10.8821ZM15.8008 5.53224C15.4044 5.2984 14.8934 5.43019 14.6596 5.8266C14.4258 6.223 14.5576 6.73392 14.954 6.96776L15.8008 5.53224ZM14.954 13.0322C14.5576 13.2661 14.4258 13.777 14.6596 14.1734C14.8934 14.5698 15.4044 14.7016 15.8008 14.4678L14.954 13.0322ZM7.70833 17.5V10.0108H6.04167V17.5H7.70833ZM7.70833 10.0108V9.98922H6.04167V10.0108H7.70833ZM7.70833 9.98922V2.5H6.04167V9.98922H7.70833ZM6.34951 3.14676L11.3495 7.20926L12.4005 5.91574L7.40049 1.85324L6.34951 3.14676ZM7.40049 18.1468L12.4005 14.0843L11.3495 12.7907L6.34951 16.8532L7.40049 18.1468ZM12.3481 12.7515L7.36374 9.31399L6.41751 10.686L11.4019 14.1235L12.3481 12.7515ZM7.36371 9.31397L7.34809 9.3032L6.40191 10.6753L6.41754 10.686L7.36371 9.31397ZM7.34811 9.30321L2.97311 6.28597L2.02689 7.65799L6.40189 10.6752L7.34811 9.30321ZM11.4019 5.87649L6.41751 9.31399L7.36374 10.686L12.3481 7.24851L11.4019 5.87649ZM6.41754 9.31397L6.40191 9.32475L7.34809 10.6968L7.36371 10.686L6.41754 9.31397ZM6.40189 9.32476L2.02689 12.342L2.97311 13.714L7.34811 10.6968L6.40189 9.32476ZM13.3708 9.11792C13.7735 9.32369 13.978 9.6685 13.978 10H15.6447C15.6447 8.9435 14.9954 8.07641 14.1292 7.63379L13.3708 9.11792ZM13.978 10C13.978 10.3315 13.7735 10.6763 13.3708 10.8821L14.1292 12.3662C14.9954 11.9236 15.6447 11.0565 15.6447 10H13.978ZM14.954 6.96776C15.9746 7.56983 16.6667 8.69915 16.6667 10H18.3333C18.3333 8.09604 17.318 6.42724 15.8008 5.53224L14.954 6.96776ZM16.6667 10C16.6667 11.3008 15.9746 12.4302 14.954 13.0322L15.8008 14.4678C17.318 13.5728 18.3333 11.904 18.3333 10H16.6667Z" fill="#484F6D"/>
</svg>
