<svg width="20" height="20" viewBox="0 0 20 20" fill="none" xmlns="http://www.w3.org/2000/svg">
<path d="M4.58333 6.59521C4.1231 6.59521 3.75 6.96831 3.75 7.42855C3.75 7.88878 4.1231 8.26188 4.58333 8.26188V6.59521ZM16.25 8.26188C16.7102 8.26188 17.0833 7.88878 17.0833 7.42855C17.0833 6.96831 16.7102 6.59521 16.25 6.59521V8.26188ZM6.9246 2.5C6.9246 2.03976 6.55151 1.66667 6.09127 1.66667C5.63103 1.66667 5.25794 2.03976 5.25794 2.5H6.9246ZM5.25794 3.78586C5.25794 4.2461 5.63103 4.6192 6.09127 4.6192C6.55151 4.6192 6.9246 4.2461 6.9246 3.78586H5.25794ZM15.4167 2.5C15.4167 2.03976 15.0436 1.66667 14.5833 1.66667C14.1231 1.66667 13.75 2.03976 13.75 2.5H15.4167ZM17.0833 6.35712H17.9167H17.0833ZM17.0833 14.9286H16.25H17.0833ZM8.93083 11.9905C8.61001 11.6605 8.08242 11.6531 7.75243 11.9739C7.42245 12.2947 7.41502 12.8223 7.73584 13.1523L8.93083 11.9905ZM9.58333 13.8571L8.98584 14.438C9.14274 14.5994 9.35825 14.6905 9.58333 14.6905C9.80842 14.6905 10.0239 14.5994 10.1808 14.438L9.58333 13.8571ZM13.0975 11.438C13.4183 11.1081 13.4109 10.5805 13.0809 10.2596C12.7509 9.93882 12.2233 9.94625 11.9025 10.2762L13.0975 11.438ZM2.91667 6.35712V14.9286H4.58333V6.35712H2.91667ZM6.25 18.3333H14.5833V16.6667H6.25V18.3333ZM17.9167 14.9286L17.9167 6.35712L16.25 6.35712L16.25 14.9286H17.9167ZM14.5833 2.95237H6.25V4.61904H14.5833V2.95237ZM4.58333 8.26188H16.25V6.59521H4.58333V8.26188ZM5.25794 2.5V3.78586H6.9246V2.5H5.25794ZM13.75 2.5V3.78571H15.4167V2.5H13.75ZM17.9167 6.35712C17.9167 4.49901 16.4463 2.95237 14.5833 2.95237V4.61904C15.4818 4.61904 16.25 5.37493 16.25 6.35712L17.9167 6.35712ZM14.5833 18.3333C16.4463 18.3333 17.9167 16.7867 17.9167 14.9286H16.25C16.25 15.9108 15.4818 16.6667 14.5833 16.6667V18.3333ZM2.91667 14.9286C2.91667 16.7867 4.38708 18.3333 6.25 18.3333V16.6667C5.3515 16.6667 4.58333 15.9108 4.58333 14.9286H2.91667ZM4.58333 6.35712C4.58333 5.37493 5.3515 4.61904 6.25 4.61904V2.95237C4.38708 2.95237 2.91667 4.49901 2.91667 6.35712H4.58333ZM7.73584 13.1523L8.98584 14.438L10.1808 13.2762L8.93083 11.9905L7.73584 13.1523ZM10.1808 14.438L13.0975 11.438L11.9025 10.2762L8.98584 13.2762L10.1808 14.438Z" fill="#484F6D"/>
</svg>
