<svg width="16" height="16" viewBox="0 0 16 16" fill="none" xmlns="http://www.w3.org/2000/svg">
<g id="cycling">
<path id="XMLID_512_" d="M5.00788 12.7457C4.67753 12.9997 4.26919 13.1569 3.82113 13.1569C2.74137 13.1569 1.86273 12.2783 1.86273 11.1986C1.86273 10.1186 2.74137 9.2399 3.82113 9.2399C4.63606 9.2399 5.33498 9.74098 5.62967 10.4506L6.24293 9.81452C5.75999 8.97159 4.86219 8.39697 3.82113 8.39697C2.27374 8.39697 1.01978 9.65122 1.01978 11.1986C1.01978 12.7457 2.27374 13.9999 3.82113 13.9999C4.54914 13.9999 5.20601 13.7154 5.7043 13.2599C5.51306 13.1957 5.33167 13.0939 5.17666 12.9446C5.11271 12.8828 5.05753 12.8153 5.00788 12.7457Z" fill="#081123"/>
<path id="XMLID_513_" d="M9.26106 8.41825L7.77768 7.55665C8.43921 7.14261 8.19392 7.29595 8.85548 6.88188L8.83465 7.09263C8.79894 7.4513 9.06327 7.77952 9.39605 7.84695C9.404 7.84859 12.0001 8.28984 12.0948 8.28984C12.432 8.28984 12.7298 8.04618 12.7868 7.70235C12.8504 7.31957 12.5917 6.95787 12.2089 6.89453L10.2977 6.57702L10.3886 5.66497C10.4802 5.08214 10.52 4.8994 10.3024 4.55169L10.0288 4.11432C9.67536 3.54985 8.93011 3.37725 8.3643 3.7315L5.37007 5.60619C4.63466 6.06664 4.27603 7.0375 4.87642 7.75169C5.11097 8.03077 7.39149 9.43218 7.39149 9.43218L5.54453 11.348C5.22128 11.683 5.2309 12.2168 5.5662 12.5397C5.72975 12.6975 5.9405 12.776 6.15122 12.776C6.37214 12.776 6.59275 12.6898 6.75793 12.518L9.44431 9.73209C9.8233 9.33995 9.73442 8.69318 9.26106 8.41825Z" fill="#081123"/>
<path id="XMLID_514_" d="M12.4079 4.59192C13.0646 4.1806 13.2635 3.31513 12.8524 2.65877C12.4414 2.00184 11.5759 1.8029 10.9193 2.21397C10.2629 2.62503 10.064 3.4902 10.4748 4.14656C10.8858 4.80351 11.7513 5.00273 12.4079 4.59192Z" fill="#081123"/>
<path id="XMLID_515_" d="M12.1795 8.39697C10.616 8.39697 9.37817 9.68692 9.37817 11.1986C9.37817 12.7457 10.6322 13.9999 12.1795 13.9999C13.7266 13.9999 14.9809 12.7457 14.9809 11.1986C14.9809 9.65122 13.7266 8.39697 12.1795 8.39697ZM12.1795 13.1569C11.0998 13.1569 10.2211 12.2783 10.2211 11.1986C10.2211 10.1186 11.0998 9.2399 12.1795 9.2399C13.2593 9.2399 14.138 10.1186 14.138 11.1986C14.138 12.2783 13.2593 13.1569 12.1795 13.1569Z" fill="#081123"/>
</g>
</svg>
