<svg width="20" height="20" viewBox="0 0 20 20" fill="none" xmlns="http://www.w3.org/2000/svg">
<path d="M10.9875 2.65039C10.9875 2.90998 10.9105 3.16374 10.7663 3.37958C10.6221 3.59542 10.4171 3.76364 10.1773 3.86298C9.93744 3.96232 9.67354 3.98831 9.41894 3.93767C9.16434 3.88703 8.93048 3.76202 8.74692 3.57847C8.56337 3.39491 8.43836 3.16105 8.38772 2.90645C8.33708 2.65185 8.36307 2.38795 8.46241 2.14812C8.56175 1.90829 8.72997 1.70331 8.94581 1.55909C9.16165 1.41487 9.41541 1.33789 9.675 1.33789C10.0231 1.33789 10.3569 1.47617 10.6031 1.72231C10.8492 1.96845 10.9875 2.30229 10.9875 2.65039ZM9.675 5.00039C9.40402 5.00039 9.13914 5.08083 8.91392 5.23151C8.68869 5.38219 8.51326 5.59633 8.40985 5.8468C8.30644 6.09727 8.2797 6.3728 8.33303 6.63848C8.38635 6.90416 8.51733 7.14803 8.70938 7.33921C8.90143 7.53038 9.1459 7.66024 9.41182 7.71235C9.67774 7.76445 9.95315 7.73645 10.2031 7.6319C10.4531 7.52734 10.6665 7.35093 10.8161 7.12502C10.9658 6.89911 11.045 6.63387 11.0438 6.36289C11.0421 6.00096 10.8972 5.65442 10.6406 5.39908C10.3841 5.14374 10.0369 5.00039 9.675 5.00039ZM9.675 8.66289C9.3944 8.66289 9.1201 8.7461 8.88679 8.90199C8.65347 9.05789 8.47163 9.27947 8.36425 9.53871C8.25686 9.79795 8.22877 10.0832 8.28351 10.3584C8.33825 10.6336 8.47338 10.8864 8.67179 11.0848C8.87021 11.2833 9.12301 11.4184 9.39822 11.4731C9.67343 11.5279 9.95869 11.4998 10.2179 11.3924C10.4772 11.285 10.6988 11.1032 10.8546 10.8699C11.0105 10.6365 11.0938 10.3622 11.0938 10.0816C11.0946 9.8951 11.0584 9.71023 10.9874 9.53773C10.9164 9.36523 10.812 9.2085 10.6801 9.07659C10.5481 8.94468 10.3914 8.84021 10.2189 8.7692C10.0464 8.6982 9.86154 8.66206 9.675 8.66289ZM9.675 12.4129C9.40579 12.4141 9.14298 12.4951 8.91975 12.6455C8.69651 12.796 8.52285 13.0092 8.42068 13.2583C8.31851 13.5074 8.29242 13.7811 8.3457 14.045C8.39897 14.3089 8.52923 14.5511 8.72002 14.741C8.91082 14.9309 9.1536 15.0601 9.41773 15.1122C9.68186 15.1642 9.95549 15.1369 10.2041 15.0336C10.4527 14.9303 10.6651 14.7556 10.8146 14.5317C10.964 14.3078 11.0437 14.0446 11.0438 13.7754C11.0438 13.5959 11.0083 13.4183 10.9394 13.2525C10.8706 13.0868 10.7697 12.9363 10.6425 12.8097C10.5153 12.6831 10.3644 12.5829 10.1983 12.5148C10.0323 12.4467 9.85445 12.4121 9.675 12.4129ZM9.675 16.1629C9.41541 16.1629 9.16165 16.2399 8.94581 16.3841C8.72997 16.5283 8.56175 16.7333 8.46241 16.9731C8.36307 17.2129 8.33708 17.4768 8.38772 17.7314C8.43836 17.986 8.56337 18.2199 8.74692 18.4035C8.93048 18.587 9.16434 18.712 9.41894 18.7627C9.67354 18.8133 9.93744 18.7873 10.1773 18.688C10.4171 18.5886 10.6221 18.4204 10.7663 18.2046C10.9105 17.9887 10.9875 17.735 10.9875 17.4754C10.9875 17.1273 10.8492 16.7935 10.6031 16.5473C10.3569 16.3012 10.0231 16.1629 9.675 16.1629ZM13.2938 4.82539C12.9879 4.82415 12.6886 4.9138 12.4337 5.08295C12.1789 5.25211 11.9801 5.49314 11.8625 5.77548C11.7449 6.05782 11.7138 6.36873 11.7731 6.66877C11.8325 6.96881 11.9796 7.24445 12.1959 7.46072C12.4122 7.677 12.6878 7.82415 12.9879 7.88352C13.2879 7.94288 13.5988 7.91179 13.8812 7.79417C14.1635 7.67655 14.4045 7.47772 14.5737 7.2229C14.7428 6.96807 14.8325 6.66874 14.8313 6.36289C14.8296 5.95563 14.6671 5.56551 14.3791 5.27753C14.0911 4.98955 13.701 4.82704 13.2938 4.82539ZM13.2938 8.48789C12.9785 8.48789 12.6704 8.58136 12.4083 8.75649C12.1462 8.93161 11.9419 9.18052 11.8213 9.47174C11.7007 9.76296 11.6691 10.0834 11.7306 10.3926C11.7921 10.7017 11.9439 10.9857 12.1668 11.2086C12.3897 11.4315 12.6737 11.5833 12.9828 11.6448C13.292 11.7063 13.6124 11.6747 13.9037 11.5541C14.1949 11.4334 14.4438 11.2292 14.6189 10.9671C14.794 10.705 14.8875 10.3969 14.8875 10.0816C14.8875 9.65895 14.7196 9.25357 14.4207 8.95469C14.1218 8.6558 13.7164 8.48789 13.2938 8.48789ZM13.2938 12.2379C12.9897 12.2379 12.6924 12.3281 12.4396 12.497C12.1867 12.6659 11.9897 12.9061 11.8733 13.187C11.7569 13.468 11.7265 13.7771 11.7858 14.0753C11.8451 14.3736 11.9916 14.6475 12.2066 14.8626C12.4216 15.0776 12.6956 15.224 12.9938 15.2833C13.292 15.3427 13.6012 15.3122 13.8821 15.1959C14.1631 15.0795 14.4032 14.8824 14.5721 14.6296C14.7411 14.3767 14.8313 14.0795 14.8313 13.7754C14.8296 13.3681 14.6671 12.978 14.3791 12.69C14.0911 12.4021 13.701 12.2395 13.2938 12.2379ZM17 8.31289C16.6494 8.30917 16.3056 8.40974 16.0123 8.60182C15.719 8.7939 15.4893 9.06882 15.3526 9.39168C15.2158 9.71453 15.1781 10.0707 15.2442 10.4151C15.3103 10.7594 15.4773 11.0763 15.7239 11.3256C15.9705 11.5748 16.2856 11.7451 16.6292 11.8149C16.9728 11.8847 17.3294 11.8508 17.6537 11.7175C17.978 11.5842 18.2554 11.3575 18.4506 11.0662C18.6458 10.775 18.75 10.4323 18.75 10.0816C18.7517 9.61527 18.5684 9.16726 18.2404 8.83573C17.9124 8.5042 17.4664 8.3162 17 8.31289ZM6.01875 5.18789C5.78212 5.18665 5.55046 5.25577 5.3532 5.38647C5.15593 5.51716 5.00196 5.70354 4.91083 5.92192C4.81971 6.1403 4.79554 6.38084 4.8414 6.61298C4.88726 6.84513 5.00108 7.05841 5.16841 7.22573C5.33573 7.39306 5.54901 7.50688 5.78116 7.55274C6.0133 7.5986 6.25384 7.57443 6.47222 7.48331C6.69061 7.39218 6.87698 7.23821 7.00767 7.04094C7.13837 6.84368 7.20749 6.61202 7.20625 6.37539C7.20625 6.06045 7.08114 5.7584 6.85844 5.5357C6.63574 5.313 6.33369 5.18789 6.01875 5.18789ZM6.01875 8.85039C5.77152 8.85039 5.52985 8.9237 5.32429 9.06105C5.11873 9.19841 4.95851 9.39363 4.8639 9.62204C4.76929 9.85044 4.74454 10.1018 4.79277 10.3443C4.841 10.5867 4.96005 10.8095 5.13487 10.9843C5.30968 11.1591 5.53241 11.2781 5.77489 11.3264C6.01736 11.3746 6.2687 11.3498 6.4971 11.2552C6.72551 11.1606 6.92074 11.0004 7.05809 10.7949C7.19544 10.5893 7.26875 10.3476 7.26875 10.1004C7.26875 9.76887 7.13705 9.45093 6.90263 9.21651C6.66821 8.98209 6.35027 8.85039 6.01875 8.85039ZM6.01875 12.6004C5.78389 12.6004 5.55429 12.67 5.35901 12.8005C5.16373 12.931 5.01152 13.1165 4.92164 13.3335C4.83176 13.5504 4.80825 13.7892 4.85407 14.0196C4.89989 14.2499 5.01299 14.4615 5.17906 14.6276C5.34514 14.7937 5.55673 14.9068 5.78708 14.9526C6.01743 14.9984 6.2562 14.9749 6.47319 14.885C6.69017 14.7951 6.87564 14.6429 7.00612 14.4476C7.1366 14.2523 7.20625 14.0228 7.20625 13.7879C7.20625 13.4729 7.08114 13.1709 6.85844 12.9482C6.63574 12.7255 6.33369 12.6004 6.01875 12.6004ZM2.35625 9.01289C2.14461 9.01165 1.93737 9.07328 1.76079 9.18996C1.58422 9.30664 1.44626 9.47312 1.36441 9.6683C1.28256 9.86347 1.2605 10.0786 1.30103 10.2863C1.34156 10.494 1.44285 10.685 1.59207 10.8351C1.74128 10.9852 1.9317 11.0876 2.13919 11.1294C2.34667 11.1711 2.56188 11.1503 2.75754 11.0696C2.95319 10.9889 3.12048 10.8519 3.23819 10.6761C3.35591 10.5002 3.41875 10.2933 3.41875 10.0816C3.41957 9.94159 3.3927 9.80275 3.33967 9.67312C3.28665 9.54349 3.20851 9.42562 3.10977 9.3263C3.01103 9.22697 2.89362 9.14815 2.7643 9.09436C2.63498 9.04058 2.49631 9.01289 2.35625 9.01289Z" fill="#00A9B9"/>
</svg>
