<svg width="20" height="20" viewBox="0 0 20 20" fill="none" xmlns="http://www.w3.org/2000/svg">
<g clip-path="url(#clip0_665_5963)">
<path d="M18.3465 18.8923H1.65335C1.01272 18.8923 0.498349 18.5698 0.240849 18.0555C0.0828777 17.8056 -0.000976563 17.5161 -0.000976562 17.2205C-0.000976563 16.9249 0.0828777 16.6353 0.240849 16.3855L8.58772 1.93859C8.9071 1.42797 9.42085 1.10547 10.0002 1.10547C10.6421 1.10547 11.1558 1.42797 11.4071 1.93859L19.7596 16.3855C19.9176 16.6353 20.0014 16.9249 20.0014 17.2205C20.0014 17.5161 19.9176 17.8056 19.7596 18.0555C19.499 18.6348 18.9846 18.8923 18.3471 18.8923H18.3465Z" fill="#007CC1"/>
</g>
<defs>
<clipPath id="clip0_665_5963">
<rect width="20" height="20" fill="white"/>
</clipPath>
</defs>
</svg>
