<svg width="28" height="28" viewBox="0 0 28 28" fill="none" xmlns="http://www.w3.org/2000/svg">
<g id="microphone-01">
<path id="Icon" d="M5.13086 13.0398C5.44099 15.1707 6.50797 17.1188 8.1366 18.5275C9.76522 19.9363 11.8466 20.7116 14 20.7116M14 20.7116C16.1534 20.7116 18.2347 19.9363 19.8634 18.5275C21.492 17.1188 22.559 15.1707 22.8691 13.0398M14 20.7116V25.1998M14.0013 2.7998C12.9828 2.7998 12.0061 3.20438 11.286 3.92451C10.5658 4.64465 10.1613 5.62137 10.1613 6.6398V11.7598C10.1613 12.7782 10.5658 13.755 11.286 14.4751C12.0061 15.1952 12.9828 15.5998 14.0013 15.5998C15.0197 15.5998 15.9964 15.1952 16.7166 14.4751C17.4367 13.755 17.8413 12.7782 17.8413 11.7598V6.6398C17.8413 5.62137 17.4367 4.64465 16.7166 3.92451C15.9964 3.20438 15.0197 2.7998 14.0013 2.7998Z" stroke="#081123" stroke-width="2.33333" stroke-linecap="round" stroke-linejoin="round"/>
</g>
</svg>
