<svg width="14" height="14" viewBox="0 0 14 14" fill="none" xmlns="http://www.w3.org/2000/svg">
<g id="Group">
<path id="Vector" d="M12.3905 5.77604H13.6606C13.6646 5.69003 13.6666 5.61154 13.6666 5.54167C13.6666 4.75367 13.3923 4.1869 12.8512 3.85706C12.5487 3.67258 12.1677 3.5613 11.6571 3.51292L12.5693 1.99266C12.6803 1.80766 12.6203 1.56771 12.4353 1.45672C12.2503 1.34568 12.0104 1.40568 11.8993 1.5907L11.3749 2.46471V1.375C11.3749 1.15927 11.2 0.984375 10.9843 0.984375C10.7686 0.984375 10.5937 1.15927 10.5937 1.375V2.46471L10.0692 1.59068C9.95825 1.40568 9.71825 1.34576 9.5333 1.45669C9.3483 1.56768 9.28833 1.80763 9.39932 1.99263L10.3115 3.51289C9.80093 3.56125 9.41989 3.67255 9.11734 3.85703C8.57632 4.1869 8.302 4.75367 8.302 5.54167C8.302 6.67935 8.83763 10.1826 9.69471 11.8878C10.0762 12.6467 10.498 13.0156 10.9843 13.0156C11.4706 13.0156 11.8924 12.6467 12.2739 11.8878C12.4808 11.4762 12.678 10.9459 12.8624 10.3073H11.9739C11.7581 10.3073 11.5833 10.1324 11.5833 9.91667C11.5833 9.70094 11.7581 9.52604 11.9739 9.52604H13.0686C13.1555 9.16599 13.2345 8.79654 13.3045 8.43229H12.1822C11.9665 8.43229 11.7916 8.2574 11.7916 8.04167C11.7916 7.82594 11.9665 7.65104 12.1822 7.65104H13.4429C13.5062 7.25953 13.5573 6.8881 13.5946 6.55729H12.3905C12.1748 6.55729 11.9999 6.3824 11.9999 6.16667C11.9999 5.95094 12.1748 5.77604 12.3905 5.77604Z" fill="#081123"/>
<path id="Vector_2" d="M7.52075 5.54144C7.52075 4.96311 7.64073 4.5086 7.82047 4.15178C7.08151 3.84521 6.23979 3.8143 5.46049 4.08774C5.38226 3.48253 5.09536 2.38159 4.04961 1.85873C3.85664 1.76219 3.622 1.84048 3.52554 2.03342C3.42909 2.22636 3.50729 2.46102 3.70026 2.55748C4.35703 2.88587 4.58591 3.5999 4.66565 4.06339C2.5189 3.36495 0.333252 4.97602 0.333252 7.20811C0.333252 8.09394 0.730257 9.34855 1.34468 10.4045C1.77627 11.1462 2.67549 12.3904 3.84888 12.3904C4.3864 12.3904 4.73159 12.2574 5.09888 12.0579C5.46617 12.2574 5.81135 12.3904 6.34888 12.3904C7.25677 12.3904 8.00044 11.6455 8.49044 10.9649C7.91 9.16808 7.52075 6.61084 7.52075 5.54144Z" fill="#081123"/>
</g>
</svg>
