<svg width="24" height="24" viewBox="0 0 24 24" fill="none" xmlns="http://www.w3.org/2000/svg">
<g id="fi_233146">
<g id="Group">
<g id="Group_2">
<g id="Group_3">
<path id="Vector" d="M22.0075 6.14838L21.9568 6.09764C21.4804 5.62121 20.7039 5.62015 20.2246 6.09906L18.3599 7.98337C18.2617 8.08193 18.1046 8.08589 18.0021 7.99158L15.3877 5.57796C15.1338 5.3433 14.8034 5.21436 14.4574 5.21436H10.5683C10.4765 5.21436 10.3887 5.24935 10.3223 5.31222L7.02611 8.44193C6.54324 8.92516 6.51002 9.70411 6.95256 10.1784C7.189 10.432 7.5083 10.5716 7.85151 10.5716H7.85757C8.19795 10.5698 8.5251 10.4252 8.75118 10.178L11.0791 7.7144H11.9123L6.47968 13.786H3.12891C2.33459 13.786 1.68139 14.38 1.64174 15.1382C1.62066 15.5343 1.75923 15.9107 2.03176 16.1978C2.30033 16.4811 2.67784 16.6432 3.06823 16.6432H8.06832C8.16688 16.6432 8.26119 16.6025 8.32904 16.53L10.8909 13.7953L13.0452 16.0482L12.3948 20.2047C12.2309 20.8933 12.5613 21.5947 13.1802 21.8715C13.3709 21.9572 13.5734 22.0001 13.7749 22.0001C13.9916 22.0001 14.2074 21.9504 14.4059 21.8522C14.7895 21.6622 15.0652 21.3147 15.1656 20.8825L16.2767 14.9228C16.2981 14.807 16.2613 14.6877 16.1778 14.6046L13.2124 11.6431L15.5681 9.29091L17.2103 10.9327C17.6689 11.3913 18.4682 11.3913 18.9264 10.9327L22.0076 7.85192C22.2351 7.62442 22.3605 7.32155 22.3605 7.00011C22.3604 6.67838 22.235 6.37588 22.0075 6.14838Z" fill="#081123"/>
<path id="Vector_2" d="M18.0683 6.28584C19.2502 6.28584 20.2113 5.32475 20.2113 4.14292C20.2113 2.96109 19.2502 2 18.0683 2C16.8865 2 15.9254 2.96109 15.9254 4.14292C15.9255 5.32475 16.8865 6.28584 18.0683 6.28584Z" fill="#081123"/>
</g>
</g>
</g>
</g>
</svg>
