<svg width="16" height="16" viewBox="0 0 16 16" fill="none" xmlns="http://www.w3.org/2000/svg">
<g id="Sport type" clip-path="url(#clip0_2851_2686)">
<path id="XMLID_547_" d="M15.0056 4.46781C15.7698 4.09284 16.0856 3.16987 15.7107 2.40607C15.3367 1.64163 14.4134 1.32604 13.6492 1.70069C12.8854 2.07505 12.5698 2.99809 12.9442 3.76189C13.3186 4.52601 14.2415 4.84188 15.0056 4.46781Z" fill="#081123"/>
<path id="XMLID_548_" d="M10.8245 6.45397C10.7015 7.05324 10.7555 7.58978 11.3525 7.75408C11.3525 7.75408 14.0992 8.5085 14.1004 8.50882L14.1019 8.50914C14.548 8.63127 15.0047 8.36869 15.1261 7.92618C15.2476 7.48306 14.9878 7.02489 14.5447 6.90254C14.5441 6.90222 14.5438 6.90222 14.5432 6.90189L13.1425 6.51722L12.5887 6.1477C12.7563 5.33234 12.6967 5.62173 12.8459 4.89673C12.9245 4.51486 12.6318 4.02657 12.4603 3.67631C12.1375 3.0183 11.3429 2.74637 10.6852 3.06892L9.76531 3.5199L11.2326 4.49982C11.1989 4.61617 11.1193 5.01885 11.0928 5.14852L4.61263 0.822151C4.32991 0.632201 3.94618 0.708793 3.75661 0.992704C3.56727 1.27604 3.64358 1.65948 3.92717 1.84875L10.8245 6.45397Z" fill="#081123"/>
<path id="XMLID_549_" d="M15.9118 13.6911C15.7373 13.3987 15.359 13.3038 15.0651 13.4786L14.2151 13.9871L8.59224 12.052L11.2436 9.81836C11.7476 9.39428 11.7216 8.60599 11.1872 8.2163L9.70362 7.13504L10.2363 6.87404L10.2977 6.84385L7.20117 4.77637L7.20056 4.77666C6.68359 5.03015 6.35472 5.51068 6.2685 6.03871C6.16152 6.69044 6.43399 7.25742 7.05008 7.72191L8.93738 9.09732L6.36771 11.2863L0.818057 9.37617C0.494932 9.26433 0.144063 9.4361 0.033411 9.75868C-0.0778205 10.0812 0.093699 10.4324 0.415922 10.5436L14.0845 15.248C14.1499 15.2706 14.2181 15.2818 14.2856 15.2818C14.3959 15.2818 14.5056 15.2522 14.6027 15.194L15.6993 14.5378C15.9917 14.363 16.0869 13.9838 15.9118 13.6911Z" fill="#081123"/>
</g>
<defs>
<clipPath id="clip0_2851_2686">
<rect width="16" height="16" fill="white"/>
</clipPath>
</defs>
</svg>
