<svg width="14" height="14" viewBox="0 0 14 14" fill="none" xmlns="http://www.w3.org/2000/svg">
<g id="Group">
<g id="_x37_0_25_">
<g id="Group_2">
<path id="Vector" d="M4.74118 4.94038C6.01347 4.94038 7.04487 3.90898 7.04487 2.63669C7.04487 1.3644 6.01347 0.333008 4.74118 0.333008C3.46889 0.333008 2.4375 1.3644 2.4375 2.63669C2.4375 3.90898 3.46889 4.94038 4.74118 4.94038Z" fill="#081123"/>
<path id="Vector_2" d="M10.8633 3.98926C9.66876 3.98926 8.6969 4.96112 8.6969 6.15573C8.6969 6.50134 8.77871 6.82816 8.92327 7.11837L7.80683 8.22421C7.80683 8.22421 6.12393 6.3492 5.68206 5.95321C5.2402 5.55722 4.58238 5.28939 3.91147 5.28939C2.58745 5.28939 1.45144 6.27031 1.25682 7.57583C1.25348 7.59465 1.25077 7.61367 1.24895 7.63294L1.24867 7.63606C1.24064 7.69882 1.23509 7.75742 1.23164 7.8144L0.9732 12.9407C0.955507 13.1266 1.01703 13.3114 1.14276 13.4495C1.26844 13.5877 1.44645 13.6664 1.63329 13.6664H5.34131C5.67767 13.6664 5.96074 13.4146 5.99993 13.0805L6.26804 9.49034C6.26815 9.48927 6.26831 9.48819 6.26842 9.48706L6.27397 9.43723C6.27397 9.43723 7.37794 10.4463 7.76702 10.4463C8.01799 10.4463 8.24742 10.3604 8.41878 10.1906L10.3643 8.26346C10.5247 8.30142 10.6915 8.32212 10.8633 8.32212C12.0578 8.32212 13.0297 7.35026 13.0297 6.15567C13.0298 4.96112 12.0579 3.98926 10.8633 3.98926ZM10.8633 6.74987C10.5356 6.74987 10.2691 6.48334 10.2691 6.15573C10.2691 5.82806 10.5356 5.56153 10.8633 5.56153C11.1909 5.56153 11.4575 5.82806 11.4575 6.15573C11.4575 6.48334 11.1909 6.74987 10.8633 6.74987Z" fill="#081123"/>
</g>
</g>
</g>
</svg>
