<svg width="16" height="16" viewBox="0 0 16 16" fill="none" xmlns="http://www.w3.org/2000/svg">
<g id="Sport type" clip-path="url(#clip0_2851_5784)">
<path id="XMLID_35_" d="M12.354 6.39907C12.8782 5.89846 12.8975 5.06726 12.3966 4.54317C11.896 4.01849 11.0651 3.9994 10.5409 4.49978C10.0163 5.00038 9.99721 5.83129 10.4976 6.35545C10.9984 6.88006 11.8293 6.89945 12.354 6.39907Z" fill="#081123"/>
<path id="XMLID_36_" d="M5.31549 7.25863L7.1981 6.32951L8.14394 6.69923L5.03877 9.66381L5.05574 9.6813C5.98802 9.09968 7.19993 9.18043 8.03029 9.92222C8.40157 9.59042 8.868 9.40122 9.35167 9.3393L10.2975 8.43656L10.8211 9.13213C10.9262 9.27164 11.09 9.3521 11.2625 9.3521C11.3114 9.3521 13.8715 9.05737 13.9245 9.05137C14.2276 9.01685 14.4447 8.74302 14.4105 8.43992C14.376 8.13655 14.1032 7.91892 13.7991 7.95446L11.5136 8.21548L10.5602 6.94849C10.4647 6.82152 10.4836 6.84161 10.3872 6.73031L10.0828 6.41153C10.0185 6.3441 9.79355 6.1581 9.69058 6.11761L7.37345 5.21198C7.22947 5.1566 7.06719 5.16315 6.92796 5.23129L4.82694 6.26733C4.55338 6.40267 4.44099 6.7337 4.57585 7.00729C4.70986 7.27873 5.03877 7.39398 5.31549 7.25863Z" fill="#081123"/>
<path id="XMLID_37_" d="M15.8454 10.577C15.6395 10.3713 15.3066 10.3708 15.1017 10.5775C14.8592 10.8205 14.4352 10.8202 14.1917 10.5772C13.5507 9.93658 12.4332 9.93658 11.7933 10.5778C11.5503 10.8208 11.1272 10.8213 10.883 10.5767C10.2425 9.93658 9.12677 9.93658 8.48612 10.5767L8.47615 10.5861C8.22533 10.8278 7.82375 10.8257 7.57495 10.577C6.91313 9.91589 5.83768 9.91645 5.15567 10.5981C4.92602 10.8278 4.51789 10.8289 4.2869 10.5971C3.65724 9.96739 2.55925 9.9671 1.92854 10.5973C1.65364 10.8727 1.17235 10.8727 0.897458 10.5973C0.692075 10.392 0.358935 10.3922 0.153585 10.5971C-0.0517972 10.8024 -0.0517973 11.1356 0.153292 11.341C0.489852 11.6775 0.937199 11.863 1.41298 11.863C1.88909 11.863 2.33667 11.6775 2.67264 11.3413C2.90548 11.1087 3.31045 11.1087 3.543 11.3407C4.16986 11.9681 5.25495 11.9874 5.92097 11.3211C6.17235 11.0695 6.58071 11.0703 6.83234 11.3219C7.49237 11.9822 8.56681 11.9819 9.22843 11.3221L9.23755 11.3128C9.47844 11.0805 9.90276 11.0844 10.139 11.3203C10.7797 11.962 11.897 11.9628 12.5377 11.3211C12.7809 11.0776 13.2042 11.0776 13.4477 11.3211C14.0887 11.962 15.2057 11.961 15.8458 11.3206C16.051 11.115 16.0507 10.7821 15.8454 10.577Z" fill="#081123"/>
</g>
<defs>
<clipPath id="clip0_2851_5784">
<rect width="16" height="16" fill="white"/>
</clipPath>
</defs>
</svg>
