<svg width="16" height="16" viewBox="0 0 16 16" fill="none" xmlns="http://www.w3.org/2000/svg">
<g id="Sport type" clip-path="url(#clip0_2851_2680)">
<path id="XMLID_383_" d="M4.26675 6.79139C4.41506 7.80166 4.0766 8.82722 3.35446 9.54865L0.70053 12.2032C0.143987 12.7597 0.143987 13.6614 0.701172 14.2186C1.25682 14.7749 2.16019 14.7739 2.71488 14.2186L5.36938 11.5641C6.09232 10.8409 7.11532 10.5029 8.12696 10.6516C8.59088 10.7199 9.06945 10.7166 9.54915 10.6567L4.26168 5.36914C4.20147 5.84887 4.19865 6.32741 4.26675 6.79139Z" fill="#081123"/>
<path id="XMLID_384_" d="M13.5869 1.3308C11.6358 -0.620232 8.25356 -0.400391 6.03161 1.82177C5.52672 2.32641 5.12987 2.89254 4.83398 3.48698L11.4313 10.0836C12.0256 9.78814 12.5918 9.39097 13.0967 8.8864C15.3184 6.66472 15.5379 3.28189 13.5869 1.3308Z" fill="#081123"/>
<path id="XMLID_385_" d="M13.9303 12.4277C12.9438 12.4277 12.1443 13.2272 12.1443 14.2138C12.1443 15.2003 12.9438 15.9998 13.9303 15.9998C14.9166 15.9998 15.7164 15.2003 15.7164 14.2138C15.7164 13.2272 14.9166 12.4277 13.9303 12.4277Z" fill="#081123"/>
</g>
<defs>
<clipPath id="clip0_2851_2680">
<rect width="16" height="16" fill="white"/>
</clipPath>
</defs>
</svg>
