<svg width="20" height="20" viewBox="0 0 20 20" fill="none" xmlns="http://www.w3.org/2000/svg">
<path d="M12.3485 5.84138C12.3485 7.1044 11.2744 8.22909 10 8.22909C8.72556 8.22909 7.65152 7.1044 7.65152 5.84138C7.65152 4.53849 8.76334 3.33333 10 3.33333C11.2367 3.33333 12.3485 4.53849 12.3485 5.84138ZM16.6667 13.9816C16.6667 14.5619 16.351 15.1959 15.325 15.7306C14.2716 16.2797 12.5489 16.6668 10 16.6668C7.45106 16.6668 5.72841 16.2797 4.67495 15.7306C3.64904 15.1959 3.33333 14.5619 3.33333 13.9816C3.33333 13.5237 3.76085 12.8531 5.05064 12.248C6.27422 11.674 8.02318 11.2963 10 11.2963C11.9768 11.2963 13.7258 11.674 14.9494 12.248C16.2391 12.8531 16.6667 13.5237 16.6667 13.9816Z" stroke="#484F6D" stroke-width="1.66667"/>
</svg>
