<svg width="20" height="20" viewBox="0 0 20 20" fill="none" xmlns="http://www.w3.org/2000/svg">
<path d="M16 11.4043C17.0561 12.1934 18 14.1801 18 15.4042C18 15.7856 17.7218 16.0948 17.3785 16.0948H17M13 8.16994C13.6832 7.77473 14.1429 7.03605 14.1429 6.19001C14.1429 5.34397 13.6832 4.6053 13 4.21008M2.62148 16.0948H13.569C13.9122 16.0948 14.1905 15.7856 14.1905 15.4042C14.1905 13.0071 12.1878 11.0638 8.09524 11.0638C4.00272 11.0638 2 13.0071 2 15.4042C2 15.7856 2.27824 16.0948 2.62148 16.0948ZM10.381 6.19001C10.381 7.45238 9.3576 8.47573 8.09524 8.47573C6.83287 8.47573 5.80952 7.45238 5.80952 6.19001C5.80952 4.92765 6.83287 3.9043 8.09524 3.9043C9.3576 3.9043 10.381 4.92765 10.381 6.19001Z" stroke="#484F6D" stroke-width="1.66667" stroke-linecap="round"/>
</svg>
