<svg width="24" height="24" viewBox="0 0 24 24" fill="none" xmlns="http://www.w3.org/2000/svg">
<g id="Well being">
<path id="Vector" d="M18.673 13.5462C18.3784 12.8874 17.9229 12.3131 17.3483 11.8763C16.7738 11.4394 16.0987 11.154 15.385 11.0462C14.7668 11.0042 14.1467 11.0931 13.5653 11.3074C12.9838 11.5216 12.4542 11.8562 12.011 12.2892C11.5696 11.8457 11.038 11.5023 10.4523 11.2821C9.86651 11.062 9.24029 10.9703 8.61602 11.0132C7.8947 11.1269 7.21428 11.4226 6.63911 11.8725C6.06394 12.3224 5.61303 12.9115 5.32902 13.5842C3.77602 16.9192 8.04702 20.4482 11.396 22.8132C11.5645 22.9318 11.7655 22.9954 11.9715 22.9954C12.1775 22.9954 12.3785 22.9318 12.547 22.8132C15.921 20.4342 20.227 16.8812 18.673 13.5462Z" fill="#081123" />
<path id="Vector_2" d="M12 10C14.2091 10 16 8.20914 16 6C16 3.79086 14.2091 2 12 2C9.79086 2 8 3.79086 8 6C8 8.20914 9.79086 10 12 10Z" fill="#081123" />
</g>
</svg>
