<svg width="20" height="20" viewBox="0 0 20 20" fill="none" xmlns="http://www.w3.org/2000/svg">
<path d="M9.9689 17.8273C5.625 17.8273 2.11049 14.3128 2.11049 9.9689C2.11049 5.625 5.625 2.11049 9.9689 2.11049C14.3128 2.11049 17.8273 5.625 17.8273 9.9689C17.8273 14.3128 14.3024 17.8273 9.9689 17.8273ZM14.3439 6.63063H15.2459L12.9236 14.2506H12.0216L10.5806 9.50237H11.4825L12.4778 12.7577L14.3439 6.63063ZM7.40818 11.3685L5.96712 6.63063H5.06517L6.50622 11.3685H7.40818ZM9.69935 6.63063L7.37707 14.2506H8.27903L10.6013 6.63063H9.69935ZM10 18.75C14.8312 18.75 18.75 14.8312 18.75 10C18.75 5.16884 14.8312 1.25 10 1.25C5.16884 1.25 1.25 5.16884 1.25 10C1.25 14.8312 5.16884 18.75 10 18.75Z" fill="black"/>
</svg>
